<svg xmlns="http://www.w3.org/2000/svg" viewBox="0 0 24 24" fill="none">
    <path d="M0.800003 12C0.800003 5.8144 5.81441 0.799988 12 0.799988C18.1856 0.799988 23.2 5.8144 23.2 12C23.2 18.1856 18.1856 23.2 12 23.2C5.81441 23.2 0.800003 18.1856 0.800003 12Z" fill="#C20618" fill-opacity="0.12"/>
    <path d="M7.2 7.19999L16.8 16.8M7.2 16.8L16.8 7.19999M12 23.2C5.81441 23.2 0.800003 18.1856 0.800003 12C0.800003 5.8144 5.81441 0.799988 12 0.799988C18.1856 0.799988 23.2 5.8144 23.2 12C23.2 18.1856 18.1856 23.2 12 23.2Z" stroke="#C20618"/>
</svg>