<svg xmlns="http://www.w3.org/2000/svg" viewBox="0 0 28 29" fill="none">
    <path d="M0.933334 14.5C0.933334 7.28347 6.78348 1.43332 14 1.43332C21.2165 1.43332 27.0667 7.28347 27.0667 14.5C27.0667 21.7165 21.2165 27.5667 14 27.5667C6.78348 27.5667 0.933334 21.7165 0.933334 14.5Z" fill="#F5C200" fill-opacity="0.12"/>
    <path d="M14.5 20.1V19.6H13.5V20.1H14.5ZM13.5 20.1187V20.6187H14.5V20.1187H13.5ZM13.5 7.96665V15.4333H14.5V7.96665H13.5ZM13.5 20.1V20.1187H14.5V20.1H13.5ZM14 27.0667C7.05962 27.0667 1.43333 21.4404 1.43333 14.5H0.433334C0.433334 21.9926 6.50734 28.0667 14 28.0667V27.0667ZM26.5667 14.5C26.5667 21.4404 20.9404 27.0667 14 27.0667V28.0667C21.4927 28.0667 27.5667 21.9926 27.5667 14.5H26.5667ZM14 1.93332C20.9404 1.93332 26.5667 7.55961 26.5667 14.5H27.5667C27.5667 7.00732 21.4927 0.933319 14 0.933319V1.93332ZM14 0.933319C6.50734 0.933319 0.433334 7.00732 0.433334 14.5H1.43333C1.43333 7.55961 7.05962 1.93332 14 1.93332V0.933319Z" fill="#FFB800"/>
</svg>