<svg xmlns="http://www.w3.org/2000/svg" viewBox="0 0 33 32" fill="none">
    <g clip-path="url(#clip0_348_330)">
        <mask id="mask0_348_330" style="mask-type:luminance" maskUnits="userSpaceOnUse" x="0" y="0" width="33" height="32">
            <path d="M32.5 0H0.5V32H32.5V0Z" fill="white"/>
        </mask>
        <g mask="url(#mask0_348_330)">
            <path d="M25.2272 0H7.77272C3.75611 0 0.5 3.25611 0.5 7.27272V24.7272C0.5 28.7439 3.75611 32 7.77272 32H25.2272C29.2439 32 32.5 28.7439 32.5 24.7272V7.27272C32.5 3.25611 29.2439 0 25.2272 0Z" fill="url(#paint0_linear_348_330)"/>
            <path d="M25.2272 0H7.77272C3.75611 0 0.5 3.25611 0.5 7.27272V24.7272C0.5 28.7439 3.75611 32 7.77272 32H25.2272C29.2439 32 32.5 28.7439 32.5 24.7272V7.27272C32.5 3.25611 29.2439 0 25.2272 0Z" fill="url(#paint1_radial_348_330)"/>
            <path d="M25.2272 0H7.77272C3.75611 0 0.5 3.25611 0.5 7.27272V24.7272C0.5 28.7439 3.75611 32 7.77272 32H25.2272C29.2439 32 32.5 28.7439 32.5 24.7272V7.27272C32.5 3.25611 29.2439 0 25.2272 0Z" fill="url(#paint2_radial_348_330)"/>
            <path d="M25.2272 0H7.77272C3.75611 0 0.5 3.25611 0.5 7.27272V24.7272C0.5 28.7439 3.75611 32 7.77272 32H25.2272C29.2439 32 32.5 28.7439 32.5 24.7272V7.27272C32.5 3.25611 29.2439 0 25.2272 0Z" fill="url(#paint3_radial_348_330)"/>
            <path d="M13.6448 24.5801V17.1575L20.8569 24.5801H24.8694V24.387L16.5734 15.9331L24.231 7.91294V7.81824H20.1925L13.6448 14.9056V7.81824H10.3932V24.5801H13.6448Z" fill="white"/>
        </g>
    </g>
    <defs>
        <linearGradient id="paint0_linear_348_330" x1="16.5" y1="0" x2="16.5" y2="32" gradientUnits="userSpaceOnUse">
            <stop stop-color="#1FD1FF"/>
            <stop offset="1" stop-color="#1BB8FF"/>
        </linearGradient>
        <radialGradient id="paint1_radial_348_330" cx="0" cy="0" r="1" gradientUnits="userSpaceOnUse" gradientTransform="translate(2.02855 30.7875) rotate(-45.1556) scale(51.3179 52.0856)">
            <stop stop-color="#232DE3"/>
            <stop offset="1" stop-color="#232DE3" stop-opacity="0"/>
        </radialGradient>
        <radialGradient id="paint2_radial_348_330" cx="0" cy="0" r="1" gradientUnits="userSpaceOnUse" gradientTransform="translate(30.7765 31.8173) rotate(-138.45) scale(32.0866 48.9231)">
            <stop stop-color="#8B4DFF"/>
            <stop offset="1" stop-color="#8B4DFF" stop-opacity="0"/>
        </radialGradient>
        <radialGradient id="paint3_radial_348_330" cx="0" cy="0" r="1" gradientUnits="userSpaceOnUse" gradientTransform="translate(16.2334 0.237332) rotate(90) scale(25.2293 61.2132)">
            <stop stop-color="#24D5FF"/>
            <stop offset="1" stop-color="#1BB8FF" stop-opacity="0"/>
        </radialGradient>
        <clipPath id="clip0_348_330">
            <rect width="32" height="32" fill="white" transform="translate(0.5)"/>
        </clipPath>
    </defs>
</svg>