<svg viewBox="0 0 57 38" fill="none" xmlns="http://www.w3.org/2000/svg" id="svg77206278_4650">
    <path d="M50.4859 25.7563C50.4859 29.7571 48.0455 32.5718 44.0829 34.3874C40.1197 36.2033 34.6367 37.0182 28.5603 37.0182C22.484 37.0182 16.9653 36.2034 12.9664 34.3874C8.96814 32.5717 6.49226 29.7569 6.49226 25.7563C6.49226 21.7542 8.95222 18.1314 12.9334 15.5082C16.9145 12.8852 22.4147 11.2633 28.4891 11.2633C34.5634 11.2633 40.0636 12.8887 44.0447 15.5135C48.0259 18.1385 50.4859 21.7613 50.4859 25.7563Z" fill="#24A95A" stroke="#138D3E" stroke-width="0.0387094"/>
    <path d="M34.6281 3.4295L34.6396 3.43205L34.6472 3.42296C36.0544 1.72651 38.1865 0.638007 40.5745 0.638007C44.8104 0.638007 48.2501 4.05914 48.2501 8.27171C48.2501 9.65708 47.8806 10.9435 47.2409 12.0603L47.2359 12.069L47.2402 12.0781C47.8518 13.3795 48.1789 14.7656 48.1789 16.2082C48.1789 19.9202 45.9822 23.2808 42.4268 25.7143C38.8715 28.1477 33.9591 29.6526 28.5333 29.6526C23.1075 29.6526 18.1952 28.1477 14.6398 25.7143C11.0844 23.2808 8.88772 19.9202 8.88772 16.2082C8.88772 14.7656 9.21478 13.3795 9.82638 12.0781L9.83067 12.069L9.82566 12.0603C9.18602 10.9435 8.81647 9.65708 8.81647 8.27171C8.81647 4.05914 12.2562 0.638007 16.4921 0.638007C18.8658 0.638007 20.998 1.72649 22.4195 3.42303L22.4271 3.4321L22.4386 3.42947C24.3609 2.99047 26.4114 2.76385 28.5333 2.76385C30.6551 2.76385 32.7057 3.00462 34.6281 3.4295Z" fill="#32DA6D" stroke="#138D3E" stroke-width="0.0387094"/>
    <path d="M15.865 12.5178C18.4621 12.5178 20.5674 10.4239 20.5674 7.84093C20.5674 5.25797 18.4621 3.16406 15.865 3.16406C13.2678 3.16406 11.1625 5.25797 11.1625 7.84093C11.1625 10.4239 13.2678 12.5178 15.865 12.5178Z" fill="white"/>
    <path d="M40.9513 12.5178C43.5484 12.5178 45.6537 10.4239 45.6537 7.84093C45.6537 5.25797 43.5484 3.16406 40.9513 3.16406C38.3542 3.16406 36.2488 5.25797 36.2488 7.84093C36.2488 10.4239 38.3542 12.5178 40.9513 12.5178Z" fill="white"/>
    <path d="M3.05158 33.7673C3.06962 33.7603 3.06959 33.7602 3.06953 33.7601L3.06926 33.7594L3.06816 33.7565L3.06379 33.7452L3.04667 33.7004C3.03163 33.6609 3.00947 33.6025 2.98099 33.5264C2.92403 33.3744 2.84181 33.1521 2.74081 32.8714C2.53881 32.3099 2.26168 31.5146 1.96118 30.5792C1.36012 28.7084 0.66576 26.278 0.291926 24.0383C0.105005 22.9185 -0.00167635 21.847 0.0233265 20.9172C0.0483413 19.987 0.205129 19.2011 0.543155 18.6507C0.880249 18.1018 1.39824 17.7858 2.15124 17.7954C2.90603 17.8051 3.89777 18.1419 5.17919 18.903C12.8807 23.4761 14.6321 31.0791 15.0451 34.5915C15.1577 35.5717 14.3691 36.4407 13.3685 36.4407H1.32733C0.534193 36.4407 0.243265 35.4036 0.938004 35.0029L3.06121 33.7841L3.07563 33.7758L3.06962 33.7603L3.05158 33.7673Z" fill="#32DA6D" stroke="#138D3E" stroke-width="0.0387094"/>
    <path d="M53.296 33.7609L53.3142 33.7673C53.3033 33.7635 53.2989 33.7619 53.2972 33.7612C53.296 33.7608 53.296 33.7607 53.2961 33.7607L53.2963 33.7599L53.2973 33.7571L53.3012 33.7458L53.3167 33.701C53.3303 33.6615 53.3503 33.603 53.3761 33.527C53.4275 33.3749 53.5018 33.1527 53.593 32.8719C53.7755 32.3105 54.0259 31.5151 54.2974 30.5798C54.8403 28.7089 55.4675 26.2784 55.8049 24.0386C55.9736 22.9188 56.0697 21.8471 56.0468 20.9172C56.0238 19.9868 55.8817 19.2006 55.5758 18.65C55.4229 18.3749 55.2294 18.1591 54.9898 18.0132C54.7503 17.8673 54.4636 17.7906 54.1232 17.7954C53.4416 17.8051 52.5454 18.1414 51.3869 18.9025C44.4403 23.4753 42.8453 31.0925 42.4893 34.5912C42.3905 35.5739 43.0962 36.4407 43.9948 36.4407H54.8817C55.234 36.4407 55.4773 36.1833 55.5541 35.8725C55.6309 35.5619 55.5399 35.2026 55.2276 35.0025L53.296 33.7609ZM53.296 33.7609L53.2909 33.7754L53.3039 33.7836L55.2275 35.0024L53.296 33.7609Z" fill="#32DA6D" stroke="#138D3E" stroke-width="0.0387094"/>
    <path d="M15.9125 10.6589C17.4618 10.6589 18.7178 9.40296 18.7178 7.85364C18.7178 6.30432 17.4618 5.04834 15.9125 5.04834C14.3632 5.04834 13.1072 6.30432 13.1072 7.85364C13.1072 9.40296 14.3632 10.6589 15.9125 10.6589Z" fill="#092511"/>
    <path d="M40.9989 10.6589C42.5482 10.6589 43.8042 9.40296 43.8042 7.85364C43.8042 6.30432 42.5482 5.04834 40.9989 5.04834C39.4496 5.04834 38.1936 6.30432 38.1936 7.85364C38.1936 9.40296 39.4496 10.6589 40.9989 10.6589Z" fill="#092511"/>
    <path d="M36.0179 19.1259C35.9331 20.1117 35.6549 21.0711 35.1994 21.9494C34.7438 22.8277 34.1197 23.6076 33.3626 24.2447C32.6056 24.8818 31.7306 25.3635 30.7874 25.6624C29.8442 25.9613 28.8514 26.0715 27.8656 25.9867C26.8798 25.9019 25.9204 25.6237 25.0421 25.1681C24.1639 24.7126 23.3839 24.0884 22.7468 23.3314C22.1098 22.5744 21.628 21.6993 21.3291 20.7562C21.0302 19.813 20.9201 18.8202 21.0049 17.8344L28.5114 18.4802L36.0179 19.1259Z" fill="#092511"/>
</svg>