<svg viewBox="0 0 32 32" version="1.1" xmlns="http://www.w3.org/2000/svg">
    <g id="Artboard" stroke="none" stroke-width="1" fill="none" fill-rule="evenodd">
        <g id="site-logo-icon" fill="#FFFFFF" fill-rule="nonzero">
            <path d="M18.8354999,17.9629 C16.4056,19.4767 13.1532,20.2564 9.85926997,20.0898 C7.08981998,19.9536 4.81842999,18.9544 3.44501999,17.3119 C2.23763999,15.8435 1.76977,13.9058 2.08670999,11.6766001 C2.19412999,10.9358001 2.41426999,10.2159001 2.73944999,9.54213006 L2.78472999,9.44751006 C3.92472999,7.24604007 5.61655998,5.38026007 7.69371998,4.03377008 C9.77086997,2.68729008 12.1618,1.90651008 14.6311,1.76828008 C17.1004,1.63006008 19.5630999,2.13915008 21.7766999,3.24545008 C23.9902999,4.35175008 25.8785999,6.01713007 27.2556999,8.07770007 C28.6328999,10.1383001 29.4513999,12.5230001 29.6306999,14.9972 C29.8099999,17.4714 29.3438999,19.9498 28.2783999,22.1884 C27.2127999,24.4271 25.5844999,26.3489 23.5535999,27.7647 C21.5227999,29.1805 19.1593999,30.0414 16.6961,30.2629 L16.847,32 C19.6126999,31.7529 22.2664999,30.7874 24.5468999,29.1985 C26.8273999,27.6097 28.6558999,25.4523 29.8521999,22.939 C31.0485999,20.4257 31.5714999,17.6431 31.3694999,14.8654 C31.1674999,12.0877001 30.2475999,9.41066006 28.7002999,7.09806007 C27.1530999,4.78547007 25.0318999,2.91708008 22.5456999,1.67696008 C20.0594999,0.436843087 17.2941,-0.132216912 14.522,0.025840888 C11.7499,0.183898088 9.06658998,1.06362009 6.73652998,2.57834008 C4.40647999,4.09306008 2.51001999,6.19052007 1.23399,8.66410006 L1.17362,8.78899006 C0.770230998,9.62515006 0.497879999,10.5187001 0.366181999,11.4382001 C-0.0111268,14.1556 0.573697998,16.5739 2.10179999,18.436 C3.77327999,20.4721 6.49367998,21.6832 9.75739997,21.8421 C13.7305,22.0427 17.6809,20.9565 20.4842999,18.9582 L18.8354999,17.9629 Z" id="Path"/>
            <path d="M22.1592999,19.9385 C20.5783999,21.3161 16.9034,23.8139 10.8061,24.1545 C3.98060999,24.533 1.1357,22.3076 1.10929,22.2849 L0.558415998,22.9662 L1.11306,22.2963 L0,23.636 C0.120739,23.7382 2.84867999,25.9484 9.25537997,25.9484 C9.77983997,25.9484 10.3307,25.9484 10.9042,25.903 C18.2730999,25.4905 22.3215999,22.266 23.7326999,20.8884 L22.1592999,19.9385 Z" id="Path"/>
            <path d="M25.1177999,21.7402 C24.1829999,22.9728 23.0322999,24.0244 21.7219999,24.8436 C17.1037,27.8335 11.229,28.2195 7.11637998,28.0113 L7.02959998,29.756 C7.72007998,29.7901 8.38413998,29.8052 9.02933998,29.8052 C20.6277999,29.8052 25.3139999,24.5068 26.6232999,22.6145 L25.1139999,21.7251" id="Path"/>
            <path d="M24.6762999,15.1341 C25.4450999,15.1341 26.0683999,14.5089 26.0683999,13.7377001 C26.0683999,12.9665001 25.4450999,12.3413001 24.6762999,12.3413001 C23.9073999,12.3413001 23.2840999,12.9665001 23.2840999,13.7377001 C23.2840999,14.5089 23.9073999,15.1341 24.6762999,15.1341 Z" id="Path"/>
        </g>
    </g>
</svg>