<svg xmlns="http://www.w3.org/2000/svg" viewBox="0 0 65 64" fill="none">
    <path d="M58.8966 15.3333V11.9999H46.4246C45.8594 9.75189 45.2028 7.52782 44.4566 5.33325L40.4432 6.03459C41.1899 7.94925 41.8912 10.0346 42.4726 11.9999H30.5579V15.3333H58.8966ZM27.7979 43.6639V19.5813H21.9232C23.3277 17.4604 24.5508 15.2381 25.5926 12.9146V10.3386H15.9792C16.5126 9.17059 16.9766 7.83725 17.4459 6.62125L13.7126 5.45325C12.222 10.6757 9.41605 15.4282 5.56323 19.2559L6.42723 23.3706C7.1979 22.6693 8.19523 21.9706 8.89657 21.2186V43.6666L27.7979 43.6639ZM17.9099 19.6026H10.0966C11.6763 17.742 13.1031 15.7569 14.3632 13.6666H21.6966C20.5665 15.7265 19.3015 17.7095 17.9099 19.6026ZM41.8939 58.6666C44.8112 58.6666 45.5606 57.0532 45.5606 53.8532V36.9999H55.5632V20.3333H32.9446V36.9999H42.2272V52.8666C42.2272 54.3172 41.6459 55.3332 40.4779 55.3332C39.1446 55.3332 37.7446 55.2159 36.3446 55.0506L37.1606 58.6666H41.8939ZM17.2299 30.3359H12.2299V23.0026H17.2299V30.3359ZM23.8966 30.3359H20.5632V23.0026H23.8966V30.3359ZM52.2299 33.6693H36.8966V23.6666H52.2299V33.6693ZM23.8966 40.3359H20.5632V33.6719H23.8966V40.3359ZM17.2299 40.3359H12.2592V33.6719H17.2299V40.3359ZM31.4139 57.0026C34.18 52.5428 36.4054 47.7697 38.0432 42.7839L34.6806 41.1652C33.0796 45.9194 30.9253 50.4689 28.2619 54.7199L31.4139 57.0026Z" fill="#E53935"/>
    <path d="M58.8966 53.1999L55.7312 55.3333C53.7605 50.7906 51.4759 46.3906 48.8939 42.1653L52.0646 40.3359C54.6253 44.4673 56.9077 48.7648 58.8966 53.1999ZM28.8966 52.9466L26.1952 53.6666C25.5552 51.1279 24.789 48.6275 23.8966 46.1653L26.4779 45.3333C27.3606 47.4986 28.1259 50.0506 28.8966 52.9466ZM23.8966 56.6159L20.7606 56.9999C20.4619 52.1013 19.8619 48.3333 18.8939 45.7146L21.8966 45.3333C22.8779 48.0986 23.5312 51.8506 23.8966 56.6133M17.2299 56.6319L14.4299 56.9973C14.3286 52.1279 14.1632 48.3306 13.8939 45.6959L16.4806 45.3306C16.8459 48.0959 17.1286 51.8826 17.2299 56.6319ZM12.2299 45.7813C11.8139 50.6106 10.8966 54.8959 9.4299 58.6613L5.56323 57.5786C7.19523 53.6853 8.16857 49.5439 8.44323 45.3306L12.2299 45.7813Z" fill="#E53935"/>
</svg>