
<svg version="1.1" id="Layer_1" xmlns="http://www.w3.org/2000/svg" viewBox="0 0 900 938" xml:space="preserve">
    <path fill="#D3FFFE" opacity="1.000000" stroke="none"
          d="
M824.101562,30.952381
	C826.919373,30.402195 829.718750,29.598648 832.561523,29.392818
	C834.390564,29.260384 836.332214,29.845839 838.136353,30.395187
	C841.103577,31.298687 844.813965,31.645706 846.749390,33.643387
	C850.260681,37.267784 855.338745,37.234814 859.011902,40.339958
	C861.902039,42.783142 866.030029,43.729168 869.039795,46.070812
	C874.533020,50.344612 878.556274,56.323013 884.792969,59.850399
	C885.877991,60.464062 886.982422,62.374916 886.856689,63.556686
	C886.418335,67.676735 890.481201,68.535759 891.743713,71.091324
	C894.146790,75.955597 899.890442,79.040779 899.187988,85.702240
	C898.974792,87.724121 901.473511,89.893692 901.896606,92.151764
	C902.618408,96.004883 902.856201,99.976028 902.978088,103.907486
	C903.143188,109.234001 903.001099,114.569862 903.001221,119.901711
	C903.006531,348.539429 903.036011,577.177185 902.878113,805.814758
	C902.874451,811.160828 900.272705,816.460144 899.778137,821.863220
	C899.270386,827.410400 895.990906,831.347656 892.828857,835.053467
	C890.403564,837.895813 890.860840,841.579956 888.427124,844.204285
	C885.207703,847.675842 883.023315,852.957520 879.144714,854.735229
	C875.023010,856.624207 871.588562,859.303101 869.106323,862.239746
	C863.714600,868.618591 854.912048,869.508545 849.599670,875.664062
	C849.234558,876.087036 847.503479,875.068787 846.532166,875.283569
	C844.280945,875.781372 840.900696,872.512329 839.714478,877.372131
	C839.550964,878.042175 836.436279,877.991943 834.611511,878.287476
	C832.806641,883.240051 832.089600,883.476807 827.840332,880.612000
	C827.234436,880.203552 826.346375,880.032349 825.595032,880.047791
	C811.039001,880.347534 796.483948,880.693115 781.928528,881.022827
	C780.792358,881.048584 779.655151,881.026306 778.149292,881.026306
	C778.149292,885.347534 778.149292,889.444458 778.149292,892.721863
	C775.531311,894.556641 773.592773,895.915283 771.423950,897.435242
	C771.942871,898.266663 772.556763,899.250366 773.357666,900.533630
	C768.858459,902.444092 763.317017,903.149780 760.795959,906.284485
	C757.643311,910.204529 753.736328,907.708191 750.059692,909.722168
	C748.010864,909.488281 746.726013,909.045837 745.440613,909.044128
	C715.866028,909.005432 686.291321,908.998352 656.716858,909.059814
	C655.122925,909.063171 653.530396,909.717712 651.937195,910.069092
	C649.881165,909.721252 647.656311,909.755737 645.807068,908.939331
	C642.726746,907.579529 639.884338,905.679321 636.947021,903.997375
	C634.511292,902.602600 631.941956,901.385986 629.696777,899.731079
	C627.945740,898.440552 626.290466,896.789368 625.159119,894.949951
	C623.866211,892.847961 621.423401,890.810669 624.532837,887.732666
	C625.651978,886.624817 624.712463,883.437378 624.712463,881.198975
	C624.237427,881.203064 623.762451,881.207153 623.287415,881.211182
	C623.078491,883.086243 622.869568,884.961243 622.660583,886.836304
	C622.236023,887.015747 621.811401,887.195190 621.386780,887.374573
	C620.342102,885.527100 619.297424,883.679565 617.859131,881.157654
	C615.995605,880.323792 614.525635,880.025085 613.055664,880.024780
	C505.072052,880.002991 397.088440,879.999573 289.104858,880.052429
	C287.411774,880.053284 285.719025,880.768860 284.026154,881.150879
	C283.103180,883.130676 282.180206,885.110535 280.651703,888.389221
	C279.617035,885.235596 279.013733,883.396790 278.006805,880.327820
	C278.006805,882.948730 277.862183,884.337036 278.030151,885.686401
	C279.168488,894.831482 274.184265,898.744751 266.285156,903.453003
	C263.913879,904.866394 259.158234,904.225586 258.493683,908.697327
	C258.454071,908.964050 256.348358,909.012878 255.203995,909.013367
	C219.054855,909.029114 182.905716,909.027039 146.756577,909.023560
	C145.297913,909.023376 138.776031,905.013184 136.725800,903.590149
	C135.241547,902.559998 133.044052,902.604309 131.423813,901.703369
	C130.630051,901.261963 130.426163,899.759766 130.698273,897.949280
	C129.781021,896.947815 128.999023,895.749084 127.908035,895.000977
	C126.840645,894.268860 125.458244,893.996155 124.115585,893.484253
	C124.115585,889.418091 124.115585,885.319519 124.115585,881.022400
	C107.997375,881.022400 92.515221,881.015625 77.033104,881.038757
	C76.069427,881.040222 74.922714,880.983643 74.173134,881.452637
	C70.094673,884.004822 68.461273,881.784546 66.750290,879.105103
	C65.012276,877.823914 63.294373,876.513611 61.519615,875.285522
	C61.155437,875.033569 60.565575,874.970459 60.101395,875.020630
	C50.176331,876.093689 43.091507,869.855408 35.627979,865.087036
	C30.108248,861.560547 25.063774,857.161499 20.286030,852.645020
	C16.745384,849.298096 13.863581,845.218262 10.970277,841.258850
	C10.500583,840.616089 11.497843,838.901367 11.805699,837.725464
	C7.324205,834.755249 4.001815,830.942261 2.988726,825.407349
	C2.738988,824.042969 2.140175,822.742432 1.350914,821.706299
	C1.000000,577.312439 1.000000,332.624878 1.000000,87.468658
	C1.383891,87.073975 2.078347,87.274323 2.107057,87.203766
	C3.434572,83.941391 4.298539,80.412582 6.082519,77.433395
	C8.329352,73.681274 11.322412,70.375999 14.423088,66.315346
	C13.555642,64.333244 13.965556,61.867550 17.307821,59.894932
	C20.915419,57.765720 24.399885,55.324192 27.563843,52.586426
	C29.421028,50.979408 30.150879,47.975670 32.092289,46.580410
	C35.585999,44.069542 39.594311,42.267460 43.416676,40.223564
	C46.135864,38.769566 48.902668,37.404613 51.949100,36.516163
	C53.442730,35.052399 53.322815,31.853483 57.559891,33.527012
	C59.165035,34.161007 62.084919,31.040318 64.568771,30.033930
	C66.080841,29.421282 67.936623,29.280281 69.580742,29.457794
	C72.094147,29.729166 74.558075,30.458784 77.944763,30.990519
	C324.765900,30.991646 570.685303,30.996264 816.604675,30.998590
	C819.103638,30.998615 821.602600,30.968449 824.101562,30.952381
M250.939255,885.960083
	C252.119568,884.423462 253.299896,882.886841 254.827469,880.898071
	C244.779861,878.840149 153.848999,879.783752 150.143906,881.899902
	C150.744858,883.201233 151.384430,884.586121 152.954346,886.050537
	C185.368362,886.035767 217.782364,886.020996 250.939255,885.960083
M750.642456,885.489563
	C750.963135,884.116333 751.283813,882.743103 751.762634,880.692810
	C749.002625,880.431396 746.750793,880.035522 744.498474,880.032532
	C713.833435,879.991516 683.168396,880.003967 652.503296,880.008057
	C651.171021,880.008240 649.753235,879.783691 648.534241,880.167969
	C647.603455,880.461487 646.563416,881.432434 646.261230,882.333191
	C646.061829,882.927612 646.890991,884.284424 647.602600,884.675476
	C648.865479,885.369324 650.389099,885.588501 652.775574,886.059143
	C685.249451,886.041443 717.723328,886.023804 750.642456,885.489563
M867.994263,117.007278
	C867.901062,113.125618 868.991150,108.979561 865.393311,105.903389
	C861.718384,102.761345 861.660400,98.540215 861.970032,94.214577
	C861.992371,93.902435 861.820068,93.576355 861.735596,93.257423
	C856.557251,91.658958 853.793152,87.583290 855.196289,84.999954
	C852.181824,81.697067 849.436401,78.436134 844.945190,77.107025
	C840.732422,75.860329 837.028809,72.977364 832.969177,71.099838
	C830.083679,69.765350 826.979004,68.904831 823.599060,67.199402
	C821.357849,66.466270 819.116943,65.091919 816.875427,65.091026
	C572.975464,64.993599 329.075439,64.989822 85.175499,65.115540
	C82.469994,65.116936 79.765404,66.882851 76.363014,68.102570
	C74.204994,69.063210 72.014023,69.956673 69.894783,70.996376
	C61.629768,75.051186 51.117046,76.048103 47.933975,87.097160
	C47.769779,87.667107 46.620399,87.883522 46.130917,88.441162
	C43.579079,91.348320 39.158154,93.067734 39.923859,98.134018
	C40.006832,98.683029 39.803970,99.504524 39.419590,99.859833
	C34.996281,103.948555 33.126167,108.912941 34.011658,115.843048
	C34.005543,239.297562 33.989948,362.752075 33.996258,486.206604
	C34.001499,588.835205 34.032524,691.463745 34.002010,794.963379
	C34.254642,797.381958 33.997570,800.009338 34.882217,802.169006
	C36.133461,805.223633 38.461956,807.819702 39.910023,810.814819
	C42.441730,816.051147 44.540207,821.511719 48.949219,825.583618
	C50.348011,826.875488 51.611153,828.381836 53.187912,829.400818
	C58.024113,832.526489 62.982395,835.463257 67.893204,838.473450
	C68.257050,838.100708 68.620888,837.727966 68.984726,837.355225
	C68.691757,838.444519 68.398781,839.533875 67.935394,841.256836
	C69.704529,840.886719 70.920647,840.408081 72.129478,840.425842
	C74.677269,840.463257 78.526817,839.798218 79.514191,841.137573
	C82.142479,844.702820 85.342491,844.009766 88.630104,844.009888
	C330.151428,844.017822 571.672791,844.017944 813.194092,843.997986
	C814.829712,843.997864 816.465393,843.711609 818.973633,843.666870
	C823.021423,844.105652 827.119507,844.758057 830.912476,841.006958
	C831.854614,840.955200 832.796692,840.903381 834.026489,840.835754
	C832.901123,839.502014 831.998108,838.431641 829.995850,836.058533
	C832.810608,836.517822 834.155212,836.916138 835.497253,836.907837
	C836.965332,836.898743 838.535950,836.765564 839.864136,836.211975
	C840.902222,835.779236 841.743103,834.705811 842.490295,833.771912
	C845.725281,829.728455 851.646606,828.958435 854.197083,824.169312
	C854.756409,823.119202 854.474243,820.815552 855.000610,820.675903
	C861.416138,818.973450 860.739624,811.895874 864.529602,807.992249
	C867.399475,805.036255 866.924500,798.832825 867.983398,793.130737
	C867.989746,573.884949 867.996460,354.639160 868.000244,135.393387
	C868.000305,129.562607 867.968445,123.731827 867.994263,117.007278
z"/>

    <path fill="#D3FFFE" opacity="1.000000" stroke="none"
          d="
M480.266632,361.840363
	C480.560547,362.033661 480.854492,362.226959 480.965515,362.727386
	C482.862762,365.675690 484.942871,368.316864 487.192352,371.225159
	C488.143433,371.718414 488.925140,371.944519 489.706848,372.170654
	C489.706848,372.170654 489.824677,372.186859 489.733582,372.575867
	C489.804077,373.622803 489.965607,374.280731 490.136414,375.272949
	C491.062103,376.451538 491.978485,377.295898 493.089447,378.267639
	C493.554413,378.554596 493.784637,378.759308 493.996460,379.371643
	C496.678497,382.823151 499.338806,385.912231 502.169952,389.156982
	C502.560394,389.531311 502.750244,389.773224 502.934082,390.382263
	C503.648224,391.468933 504.338654,392.211731 505.118652,393.183411
	C505.390198,393.699768 505.639557,393.905640 506.014893,394.334961
	C506.667297,395.153381 507.261047,395.666840 507.902435,396.377502
	C507.950073,396.574707 508.116241,396.944885 508.142853,397.313110
	C509.288422,398.332336 510.407379,398.983276 511.526337,399.634216
	C511.807648,399.819611 512.088989,400.005035 512.508362,400.577637
	C512.756958,401.312317 512.867432,401.659821 512.984497,402.376038
	C515.666199,406.153564 518.341370,409.562347 521.118286,413.207275
	C521.510620,413.612305 521.801025,413.781189 522.086792,414.278351
	C522.761902,415.330811 523.441772,416.054962 524.236206,417.029297
	C524.652039,417.477692 524.953369,417.675873 525.201782,418.223389
	C526.436279,419.708679 527.723572,420.844635 529.225647,422.205444
	C529.987549,423.271881 530.534729,424.113495 531.075806,425.280396
	C531.754333,426.332703 532.438965,427.059723 533.234314,428.102600
	C534.562805,429.600830 535.780640,430.783203 537.063232,432.340302
	C539.191162,434.806702 540.878052,434.600922 540.915283,431.509583
	C541.063110,419.244293 541.044617,406.975098 540.842041,394.711395
	C540.826660,393.781311 538.888550,392.883026 537.844238,391.969940
	C537.699402,390.670105 537.429932,389.370453 537.428101,388.070404
	C537.384705,357.031647 537.369934,325.992889 537.816650,294.366486
	C538.850891,287.422882 539.525024,281.072510 539.861145,274.704315
	C539.907043,273.835388 538.265808,272.877411 537.405701,271.960632
	C537.316650,262.290558 537.227600,252.620514 537.598633,242.491272
	C540.701172,241.516327 543.324890,240.797119 545.992188,240.552582
	C547.936707,240.374359 549.938416,240.967712 551.914856,240.969131
	C591.724854,240.997864 631.534790,240.993271 671.344788,240.986084
	C674.947021,240.985443 678.549194,240.921371 682.393799,240.958618
	C682.960815,241.073486 683.285400,241.116516 683.609985,241.159546
	C683.655518,244.132416 683.701050,247.105301 683.263794,250.533081
	C680.029541,254.165253 680.247986,261.349701 683.239136,266.055542
	C683.285583,272.044708 683.331970,278.033905 682.954651,284.262054
	C682.099060,283.143951 681.667236,281.786835 681.235413,280.429718
	C680.819641,280.511383 680.403870,280.593018 679.988098,280.674652
	C679.988098,410.748230 679.988098,540.821777 679.988098,670.895325
	C672.632080,670.989380 665.276123,671.083435 657.395996,670.689880
	C654.379211,668.557068 651.980042,667.801758 649.988220,670.925232
	C623.634033,670.997803 597.279785,671.070374 570.419495,670.692627
	C568.260803,668.521179 566.857117,668.209534 565.989868,670.935181
	C563.609863,670.634766 561.229858,670.334351 558.455566,669.650635
	C557.890442,668.956543 557.631104,668.835938 557.283325,668.905457
	C557.251526,668.738831 557.219788,668.572205 557.231445,667.811646
	C556.084717,666.060303 554.894592,664.902832 553.704407,663.745422
	C553.561707,663.357056 553.419067,662.968689 553.475098,662.087036
	C550.578674,657.627625 547.560364,653.598511 544.373596,649.707458
	C535.260132,638.580017 526.124084,627.470398 516.910217,616.426086
	C507.790344,605.494385 498.456116,594.740295 489.411835,583.747192
	C476.885803,568.522217 464.623077,553.080566 452.100769,537.852478
	C437.575531,520.188660 422.953979,502.602753 408.217224,485.115387
	C405.619324,482.032623 403.708221,477.728027 398.056519,477.238922
	C398.056519,479.696777 398.046387,481.811157 398.058044,483.925385
	C398.387390,543.699646 398.723053,603.473877 399.044464,663.248230
	C399.081146,670.076355 399.044800,670.078430 392.539124,670.078308
	C349.890656,670.077332 307.242218,670.075745 264.593750,670.073486
	C257.863434,670.073120 257.857758,670.071106 257.857971,663.477905
	C257.860168,591.175354 257.869019,518.872742 257.866302,446.570160
	C257.864197,390.927185 257.864319,335.284149 257.769867,279.641327
	C257.766663,277.739258 256.752350,275.838898 256.209290,273.937744
	C256.163879,263.286072 256.118439,252.634384 256.506378,241.438873
	C260.158783,240.246857 263.393707,238.974960 266.594238,239.056274
	C282.191193,239.452438 297.775696,240.606415 313.370819,240.734711
	C330.827393,240.878342 348.310364,240.597778 365.741821,239.713348
	C373.375824,239.326004 379.367157,240.300674 383.305298,247.502625
	C384.554291,249.786728 386.642426,251.609741 388.333038,253.654922
	C399.003479,266.563538 409.592102,279.540955 420.378723,292.351685
	C424.366150,297.087402 428.816498,301.433289 433.055695,305.956970
	C433.055695,305.956970 432.997925,305.996033 433.027435,306.322083
	C435.163269,309.581207 437.051086,312.707489 439.431061,315.398560
	C442.420959,318.779266 445.813843,321.803619 449.032806,324.981750
	C449.955383,325.496979 450.877991,326.012177 451.731262,327.124512
	C451.700867,327.897308 451.739807,328.073029 451.828430,328.589447
	C452.893494,329.977600 453.908875,331.024994 454.963074,332.058594
	C455.001892,332.044769 454.922485,332.052399 454.942566,332.406921
	C455.979919,333.831696 456.997223,334.901978 458.221497,336.163818
	C458.933838,336.910004 459.439270,337.464630 459.971313,338.364349
	C460.665985,339.472015 461.334045,340.234589 462.001038,340.998596
	C462.000000,341.000000 462.002869,340.997833 462.059448,341.318604
	C462.984833,342.135712 463.853607,342.632019 464.722412,343.128326
	C464.722412,343.128326 464.847931,343.156189 464.746338,343.444580
	C464.644714,343.732971 464.783813,344.196014 464.859497,344.539764
	C465.942566,345.598511 466.949982,346.313477 467.957397,347.028442
	C467.957397,347.028442 468.000000,347.000000 467.959503,347.385803
	C469.909088,350.227997 471.899170,352.684418 473.938477,355.343384
	C473.987762,355.545929 474.137268,355.935028 474.141846,356.269318
	C475.072723,357.436432 475.999084,358.269226 477.058838,359.299927
	C477.405762,359.747101 477.669983,359.918030 478.054199,360.343445
	C478.837952,361.064270 479.552277,361.452301 480.266632,361.840363
z"/>
    <path fill="#D1FFFD" opacity="1.000000" stroke="none"
          d="
M136.931854,137.117920
	C132.817017,136.195526 134.260910,139.308029 133.549652,141.538315
	C127.758049,139.741806 128.048828,143.681015 128.036331,146.814575
	C127.962555,165.303955 128.040283,183.794067 127.901703,202.282715
	C127.892738,203.478653 126.502724,204.664230 125.755142,205.854614
	C125.170662,204.668579 123.997993,203.424683 124.107986,202.306976
	C124.494179,198.382477 125.842529,194.507919 125.891388,190.602707
	C126.101860,173.781555 125.980255,156.956238 125.979576,140.132446
	C125.979477,137.652115 125.979553,135.171783 125.979553,131.311874
	C122.328300,132.875381 118.661407,134.445602 114.692070,135.992783
	C113.650459,135.658066 112.911293,135.346390 112.172119,135.034698
	C112.122795,132.515549 112.536209,129.877029 111.923813,127.503136
	C110.793182,123.120338 114.894722,121.185089 115.921593,117.785934
	C117.398575,112.896858 122.447800,117.110535 125.385956,115.076126
	C126.061104,114.608658 127.337257,115.010124 128.336823,115.010117
	C336.913696,115.008446 545.490540,114.975159 754.067322,115.144035
	C760.917297,115.149590 768.358948,115.931084 774.417603,118.739464
	C778.867676,120.802246 784.782471,122.756844 786.893127,129.071899
	C787.628601,131.272324 791.901978,132.068542 793.958008,134.111481
	C796.026123,136.166351 797.807068,138.787567 798.901550,141.489685
	C801.519653,147.953217 803.660034,154.610229 805.919800,161.854141
	C805.414490,164.647873 804.549316,166.795502 804.641052,168.901413
	C804.831055,173.259537 805.954407,177.595154 805.957581,181.940567
	C806.036560,290.833344 806.019653,399.726166 806.019714,508.618988
	C806.019714,527.689819 806.098511,546.761169 805.972900,565.831116
	C805.933594,571.786316 805.011841,577.741028 805.068481,583.690552
	C805.211426,598.717712 805.808228,613.740601 805.955139,628.767761
	C806.011658,634.550354 805.041016,640.341797 805.076172,646.125977
	C805.125122,654.154724 805.923462,662.178833 805.972900,670.207581
	C806.108093,692.203979 806.069214,714.202026 805.976318,736.198914
	C805.958435,740.439148 805.382141,744.677002 805.007080,749.285278
	C804.315063,751.476746 803.679443,753.298950 803.043823,755.121094
	C803.043762,755.121094 802.984863,755.580994 802.676392,756.036865
	C802.261169,757.371460 802.154419,758.250122 802.047729,759.128784
	C801.698242,760.086365 801.485779,761.134338 800.939575,761.962036
	C800.679749,762.355713 799.783936,762.329651 799.176208,762.493652
	C803.085266,767.760193 793.493713,768.797791 795.596741,773.705566
	C795.831055,774.252380 793.975830,775.776306 792.992676,776.749207
	C788.083923,781.606689 784.114563,787.573914 775.680542,787.292480
	C773.144226,787.207886 770.707397,791.120361 767.847046,792.206238
	C763.033752,794.033752 758.440979,798.445557 752.582764,794.345032
	C751.435120,793.541687 749.352722,794.001465 747.701355,794.000610
	C720.101013,793.986633 692.500610,793.991943 664.175964,793.662964
	C662.248535,793.233459 661.045471,793.134033 659.842346,793.034607
	C658.650024,791.937195 657.457764,790.839783 656.130493,788.949097
	C655.984375,784.727966 655.973267,781.300171 655.962097,777.872314
	C657.951843,773.460144 661.566711,771.877808 666.637939,772.455688
	C668.805969,773.932678 670.496521,775.853149 672.201294,775.865845
	C697.814880,776.057556 723.430908,776.069458 749.043640,775.833130
	C750.707153,775.817749 752.348877,773.440857 754.000732,772.162476
	C755.396118,772.104919 756.791504,772.047363 758.945740,771.907166
	C761.510620,770.869934 763.316650,769.915344 765.122620,768.960754
	C765.513245,768.974915 765.903931,768.989136 766.913330,768.862061
	C770.461182,765.846985 774.842346,764.072815 774.883728,759.012329
	C775.705139,758.065918 776.526550,757.119568 778.045898,756.053345
	C779.847168,753.919617 780.950500,751.905823 782.053833,749.892090
	C782.670715,749.795288 783.287537,749.698425 784.381470,749.257080
	C786.668213,748.602966 788.477966,748.293396 790.287720,747.983887
	C789.571899,749.501465 788.630798,750.959717 788.210266,752.555054
	C787.865417,753.863586 788.140076,755.335327 788.140076,757.799133
	C796.401917,750.171631 796.401917,750.171631 787.907959,738.693237
	C792.028870,739.239685 795.273010,739.669922 799.376465,740.214050
	C798.890808,735.229126 798.287720,730.189148 797.954285,725.131348
	C797.787964,722.607544 798.274231,720.045288 798.179443,717.511108
	C798.054321,714.169189 798.673584,710.233093 797.140198,707.633362
	C794.330994,702.870605 793.939880,700.779724 797.301636,696.552612
	C798.416138,695.151123 798.891602,692.909607 798.926880,691.038391
	C799.091431,682.298279 799.000000,673.553345 799.000000,664.810181
	C799.000000,648.561401 799.022461,632.312622 798.980835,616.063965
	C798.972595,612.848511 799.821777,609.277466 795.736572,607.427429
	C795.250610,607.207336 795.216248,605.303894 795.449768,604.290710
	C797.206177,596.671021 799.149658,589.093872 800.848450,581.461975
	C801.104614,580.310791 800.320862,578.954407 800.143005,577.675537
	C799.491577,572.993896 798.747681,568.317993 798.326050,563.614136
	C798.051453,560.550232 798.274353,557.441711 798.274353,554.353210
	C797.751282,554.315125 797.228210,554.277039 796.705139,554.238953
	C795.414368,555.360107 794.123596,556.481323 792.481995,557.907288
	C791.211182,551.316406 795.850464,551.114807 799.819153,550.368469
	C799.234497,542.870422 798.321655,535.645935 798.202332,528.408447
	C798.075500,520.714844 798.865601,513.009644 798.904480,505.307739
	C798.917297,502.766266 797.272217,500.199524 797.359924,497.678284
	C797.687866,488.253113 798.597595,478.848511 798.943787,469.423523
	C799.221680,461.856506 799.000000,454.271118 799.000000,446.693878
	C799.000000,431.786072 799.108704,416.877167 798.958496,401.970886
	C798.870789,393.261108 798.068970,384.553741 798.118103,375.848328
	C798.213074,359.035980 798.835815,342.225952 798.859497,325.414459
	C798.863831,322.328278 797.067688,319.239624 796.339478,316.909821
	C797.272400,313.574799 798.662292,310.523438 798.878723,307.391052
	C799.217346,302.489655 798.369690,297.502228 798.759033,292.609680
	C799.115051,288.134888 799.421814,284.006104 796.820557,282.173157
	C797.675476,277.301941 798.605469,273.610565 798.901672,269.868988
	C799.205017,266.036285 800.578552,260.958374 792.512878,262.239288
	C800.782288,258.083893 799.046265,251.117172 798.956604,244.819290
	C798.811035,234.589066 798.130554,224.362381 798.147583,214.134979
	C798.167542,202.181747 798.759521,190.230560 798.975281,178.276169
	C799.104492,171.118408 794.738342,168.088745 788.070496,170.404510
	C786.849670,170.828537 785.476501,170.813843 784.173645,171.001648
	C784.115845,170.350861 784.009521,169.700165 784.008118,169.049240
	C783.999207,164.831116 784.813293,160.328064 780.237305,157.224884
	C780.520813,150.910461 773.913940,143.719635 768.106445,143.167877
	C768.106445,143.167877 767.936646,143.145386 767.942139,142.693039
	C765.737305,139.087860 763.078247,136.718689 758.875366,137.045471
	C757.186157,137.026077 755.496887,137.006683 753.102905,136.661499
	C747.767395,135.223785 743.137512,133.143219 738.505859,133.139420
	C541.424316,132.977234 344.342651,133.000000 147.261002,133.000000
	C145.360809,133.000000 143.460617,133.000000 141.169052,133.000000
	C142.040115,134.827530 142.519440,135.833206 142.998779,136.838867
	C142.265411,136.895889 141.532059,136.952896 140.244263,136.794006
	C138.770508,136.758026 137.851181,136.937973 136.931854,137.117920
z"/>
    <path fill="#D4FFFD" opacity="1.000000" stroke="none"
          d="
M575.008301,789.851440
	C574.684998,790.057068 574.361755,790.262634 573.679565,790.886719
	C572.878174,792.122070 572.435669,792.939026 571.993225,793.755920
	C571.555054,793.840637 571.116882,793.925354 570.497742,793.603882
	C570.285034,788.751465 566.891663,791.119568 565.320496,791.117981
	C435.754333,790.989929 306.188049,791.031494 176.621826,790.959290
	C160.844315,790.950500 145.067474,790.356750 129.288971,790.129333
	C128.040482,790.111389 126.792854,790.887756 125.524467,791.216309
	C122.992683,791.872375 120.446754,792.473755 117.906677,793.097717
	C117.906670,793.097717 117.999084,793.000000 117.979050,792.680176
	C117.030464,790.910217 116.101906,789.460083 115.173347,788.010010
	C112.548424,786.705811 112.112465,784.304016 112.503433,781.337280
	C113.653046,779.848755 114.902649,778.753723 114.907539,777.653198
	C115.018845,752.609497 115.032417,727.564880 114.874748,702.521667
	C114.867340,701.344421 113.109161,700.178162 112.166351,699.006775
	C110.981949,698.346497 109.858879,697.288818 108.602486,697.094849
	C103.225082,696.264648 97.767876,695.911072 92.421471,694.935791
	C89.315208,694.369202 86.766838,692.843323 86.845619,688.757202
	C86.869995,687.493408 84.993767,686.192871 83.986488,684.027710
	C83.973518,644.732117 83.961777,606.317871 83.950043,567.903687
	C85.843216,564.838867 87.425064,561.518127 89.691551,558.760132
	C95.128532,552.144104 102.393204,553.532471 109.545403,554.795532
	C110.340355,554.935913 111.191910,554.755737 112.497154,554.341797
	C113.649994,552.687317 114.852432,551.436218 114.903748,550.139526
	C115.121033,544.648804 114.996307,539.144592 114.996307,533.645264
	C114.996338,488.150970 114.990318,442.656677 115.012253,397.162384
	C115.013474,394.628815 115.344360,392.049927 112.173157,391.035004
	C110.854393,383.911682 112.793312,377.292236 118.320442,373.197815
	C120.863800,371.313660 126.476196,371.805725 129.861389,373.220123
	C135.586365,375.612183 133.980545,381.597168 133.981003,386.478271
	C133.993057,514.642395 133.990921,642.806458 134.008530,771.808105
	C135.729202,774.323669 137.432571,776.001709 139.135925,777.679749
	C140.090942,775.841736 141.045975,774.003662 142.001007,772.165649
	C143.828735,772.109131 145.656464,772.003296 147.484192,772.003235
	C284.726593,771.995605 421.968964,771.996460 559.211365,771.995544
	C563.352844,771.995483 567.498047,772.088745 571.634399,771.940247
	C574.268066,771.845703 574.382629,772.898132 573.717041,775.341919
	C576.357239,779.132019 577.490479,782.594360 576.226929,786.592224
	C576.082153,787.050171 576.684509,787.744263 576.940369,788.328857
	C576.940369,788.328857 576.756042,788.790161 576.302979,788.720947
	C575.569336,789.051636 575.288818,789.451599 575.008301,789.851440
M112.025032,584.318787
	C111.970512,583.671509 111.916000,583.024231 111.929245,583.181519
	C109.821709,583.181519 107.950676,583.181519 106.182327,583.181519
	C106.182327,612.219299 106.182327,641.822021 106.182327,672.081970
	C107.058182,669.619385 107.713867,667.775879 108.288139,666.161255
	C109.842651,666.494690 111.004395,666.743896 112.977318,666.959656
	C113.650108,665.687988 114.903694,664.419067 114.909737,663.144165
	C115.025826,638.650391 115.046692,614.155579 114.874535,589.662476
	C114.863647,588.113647 113.113808,586.577026 112.025032,584.318787
z"/>
    <path fill="#D3FFFF" opacity="1.000000" stroke="none"
          d="
M784.093933,171.464142
	C785.476501,170.813843 786.849670,170.828537 788.070496,170.404510
	C794.738342,168.088745 799.104492,171.118408 798.975281,178.276169
	C798.759521,190.230560 798.167542,202.181747 798.147583,214.134979
	C798.130554,224.362381 798.811035,234.589066 798.956604,244.819290
	C799.046265,251.117172 800.782288,258.083893 792.512878,262.239288
	C800.578552,260.958374 799.205017,266.036285 798.901672,269.868988
	C798.605469,273.610565 797.675476,277.301941 796.820557,282.173157
	C799.421814,284.006104 799.115051,288.134888 798.759033,292.609680
	C798.369690,297.502228 799.217346,302.489655 798.878723,307.391052
	C798.662292,310.523438 797.272400,313.574799 796.339478,316.909821
	C797.067688,319.239624 798.863831,322.328278 798.859497,325.414459
	C798.835815,342.225952 798.213074,359.035980 798.118103,375.848328
	C798.068970,384.553741 798.870789,393.261108 798.958496,401.970886
	C799.108704,416.877167 799.000000,431.786072 799.000000,446.693878
	C799.000000,454.271118 799.221680,461.856506 798.943787,469.423523
	C798.597595,478.848511 797.687866,488.253113 797.359924,497.678284
	C797.272217,500.199524 798.917297,502.766266 798.904480,505.307739
	C798.865601,513.009644 798.075500,520.714844 798.202332,528.408447
	C798.321655,535.645935 799.234497,542.870422 799.819153,550.368469
	C795.850464,551.114807 791.211182,551.316406 792.481995,557.907288
	C794.123596,556.481323 795.414368,555.360107 796.705139,554.238953
	C797.228210,554.277039 797.751282,554.315125 798.274353,554.353210
	C798.274353,557.441711 798.051453,560.550232 798.326050,563.614136
	C798.747681,568.317993 799.491577,572.993896 800.143005,577.675537
	C800.320862,578.954407 801.104614,580.310791 800.848450,581.461975
	C799.149658,589.093872 797.206177,596.671021 795.449768,604.290710
	C795.216248,605.303894 795.250610,607.207336 795.736572,607.427429
	C799.821777,609.277466 798.972595,612.848511 798.980835,616.063965
	C799.022461,632.312622 799.000000,648.561401 799.000000,664.810181
	C799.000000,673.553345 799.091431,682.298279 798.926880,691.038391
	C798.891602,692.909607 798.416138,695.151123 797.301636,696.552612
	C793.939880,700.779724 794.330994,702.870605 797.140198,707.633362
	C798.673584,710.233093 798.054321,714.169189 798.179443,717.511108
	C798.274231,720.045288 797.787964,722.607544 797.954285,725.131348
	C798.287720,730.189148 798.890808,735.229126 799.376465,740.214050
	C795.273010,739.669922 792.028870,739.239685 787.907959,738.693237
	C796.401917,750.171631 796.401917,750.171631 788.140076,757.799133
	C788.140076,755.335327 787.865417,753.863586 788.210266,752.555054
	C788.630798,750.959717 789.571899,749.501465 790.287720,747.983887
	C788.477966,748.293396 786.668213,748.602966 784.512695,748.955933
	C784.111755,745.672668 784.008362,742.345947 784.008301,739.019226
	C784.004761,549.988342 784.009949,360.957489 784.093933,171.464142
M792.475586,643.069702
	C792.564087,644.627869 792.652588,646.186035 792.741089,647.744202
	C793.761169,647.197144 795.435120,646.847473 795.671692,646.063843
	C796.248779,644.152588 796.196716,642.011475 792.475586,643.069702
M794.267639,494.097900
	C794.767395,494.042877 795.267151,493.987854 795.766907,493.932831
	C795.651978,493.485260 795.537048,493.037659 795.422180,492.590088
	C794.995483,492.893005 794.568848,493.195953 794.267639,494.097900
z"/>
    <path fill="#D1FEFC" opacity="1.000000" stroke="none"
          d="
M207.941422,240.576996
	C206.992188,239.601440 206.042953,238.625885 204.316132,236.851151
	C201.538940,236.116989 197.562851,234.289597 193.548004,234.200027
	C188.472305,234.086823 185.821854,230.894196 182.793991,227.974167
	C179.544067,224.839966 176.517090,221.474594 173.081207,217.884491
	C174.098007,215.976410 177.166443,213.096588 171.692764,211.777740
	C171.183304,211.654968 171.245544,209.159546 171.344879,207.076172
	C171.415619,200.890060 171.183823,195.393539 170.952026,189.897018
	C170.952042,187.081436 170.952042,184.265869 170.952042,181.179031
	C172.265060,181.066498 173.366684,180.972092 173.143173,180.991241
	C175.521103,173.536469 182.270325,170.237198 185.751617,164.787994
	C190.948776,156.652969 198.239075,159.597260 204.949783,159.059631
	C209.081039,158.728653 213.268677,159.171967 217.418015,158.982773
	C228.622711,158.471863 235.505325,164.004639 240.208847,173.814087
	C241.922882,177.388824 245.702133,179.974380 248.543472,183.007202
	C251.225739,185.870239 253.156830,188.060501 249.720398,192.505493
	C247.837097,194.941498 249.358566,200.044449 249.436523,203.942993
	C249.463394,205.286758 250.361801,206.929993 249.853912,207.918442
	C244.884537,217.589920 238.015839,225.805359 229.752197,232.823486
	C228.778656,233.650284 227.040833,233.732498 225.630341,233.858795
	C222.131622,234.172119 218.259232,233.150940 215.024124,236.923065
	C211.716400,237.464447 207.502655,235.024841 207.941422,240.576996
M205.229446,183.984695
	C197.592789,182.193893 197.277145,190.229828 193.803223,192.185974
	C193.803223,195.007858 193.803223,196.972580 193.803223,198.937286
	C193.379196,198.947479 192.955185,198.957672 192.531158,198.967865
	C192.087418,197.942703 191.643661,196.917557 191.199921,195.892395
	C190.786179,196.051895 190.372421,196.211380 189.958679,196.370880
	C191.207886,199.317307 192.457092,202.263733 193.242569,204.116409
	C195.166199,206.273621 196.172119,207.766495 197.516449,208.832687
	C200.246078,210.997574 203.132843,212.972305 206.070465,214.843933
	C206.221054,214.939850 207.455246,213.335007 208.679382,211.971100
	C209.063232,212.010666 210.469437,211.869308 211.608994,212.354385
	C212.726181,212.829941 214.168228,214.813171 214.436523,214.629395
	C215.788620,213.703186 216.856964,212.327911 217.911911,211.019150
	C218.361633,210.461258 218.385757,209.544083 218.860184,209.024948
	C221.845886,205.757965 224.999390,202.637573 227.848770,199.259033
	C228.353790,198.660217 227.960693,196.953079 227.509613,195.975983
	C226.710983,194.245972 225.860840,192.322723 224.474686,191.126358
	C221.633453,188.674179 220.033249,184.374786 214.983002,184.851685
	C213.786560,184.964661 212.382614,182.879974 210.637726,181.448090
	C209.741135,182.216415 206.184586,178.681259 205.229446,183.984695
z"/>
    <path fill="#D1FFFD" opacity="1.000000" stroke="none"
          d="
M133.824722,322.999969
	C133.882538,324.659668 133.986664,326.319275 133.989838,327.979095
	C134.001205,333.908051 130.897537,336.947205 124.351669,336.571136
	C122.928360,334.583466 121.994637,333.007843 121.060913,331.432190
	C120.623344,331.628235 120.185783,331.824249 119.748215,332.020264
	C120.493935,333.621490 121.239655,335.222687 121.985382,336.823883
	C111.913269,336.891235 101.836647,337.126556 91.773598,336.856354
	C90.145973,336.812653 88.026512,334.829865 87.117531,333.196320
	C85.866051,330.947205 82.455589,329.445923 83.992111,325.069153
	C83.985413,286.740601 83.979477,249.318100 83.973541,211.895599
	C84.010437,205.261475 86.227562,203.000580 92.701691,203.000824
	C95.161072,203.000916 97.620461,203.008301 100.539917,203.494843
	C99.841560,206.831329 98.683136,209.685318 97.112144,213.555725
	C100.325340,213.555725 104.138229,213.257950 107.878777,213.650085
	C110.861740,213.962799 113.756508,215.116684 116.690414,215.897156
	C115.766846,218.189346 114.765083,220.454163 113.949730,222.784195
	C113.477768,224.132950 113.305992,225.586761 112.790649,226.996796
	C112.582184,227.000305 112.165199,227.005219 112.032166,226.693359
	C110.059517,226.661774 108.219894,226.942032 106.651413,227.181000
	C106.651413,256.030884 106.651413,285.448822 106.651413,314.866791
	C106.867981,314.881134 107.084557,314.895508 107.301125,314.909882
	C107.533447,313.023712 107.765770,311.137543 108.049873,308.830994
	C109.626251,310.127136 110.636665,310.957947 111.807045,311.920258
	C111.985214,310.962219 112.075188,310.478394 112.470978,309.995636
	C113.184532,309.998199 113.592262,309.999695 114.034439,310.348328
	C115.533203,312.454895 117.296036,314.052307 118.366592,316.025360
	C119.210175,317.580078 119.200851,319.597565 119.570351,321.409485
	C112.859718,317.861786 112.169647,317.926147 110.518608,322.331696
	C112.231659,323.023102 113.962700,323.721771 115.693733,324.420471
	C115.661041,325.032898 115.628349,325.645294 115.595657,326.257721
	C112.689453,326.440704 109.769165,326.508820 106.883850,326.862366
	C105.705292,327.006805 104.602463,327.769318 103.465164,328.250610
	C104.325638,329.158783 105.129257,330.776276 106.056580,330.850616
	C109.800911,331.150787 113.583374,330.975128 117.355591,330.975128
	C117.853958,328.716431 118.230049,327.011963 118.723267,324.776642
	C123.820335,324.176971 128.822525,323.588470 133.824722,322.999969
z"/>
    <path fill="#D4FFFD" opacity="1.000000" stroke="none"
          d="
M112.999123,226.993286
	C113.305992,225.586761 113.477768,224.132950 113.949730,222.784195
	C114.765083,220.454163 115.766846,218.189346 116.690414,215.897156
	C113.756508,215.116684 110.861740,213.962799 107.878777,213.650085
	C104.138229,213.257950 100.325340,213.555725 97.112144,213.555725
	C98.683136,209.685318 99.841560,206.831329 101.000092,203.571594
	C103.373840,203.115143 105.747490,203.064423 108.567299,203.456390
	C109.025360,204.063950 109.023758,204.231125 109.051178,204.393387
	C109.695610,208.206436 112.716370,209.210739 115.839684,209.815216
	C116.388695,209.921463 117.869362,208.483292 117.826622,207.829865
	C117.603386,204.416931 115.489105,202.551559 112.163544,202.000168
	C112.110634,201.250031 112.057724,200.499908 112.487625,199.356842
	C113.645271,197.370285 114.896141,195.780685 114.907265,194.182449
	C115.042282,174.794312 114.994652,155.404892 114.994507,136.015808
	C118.661407,134.445602 122.328300,132.875381 125.979553,131.311874
	C125.979553,135.171783 125.979477,137.652115 125.979576,140.132446
	C125.980255,156.956238 126.101860,173.781555 125.891388,190.602707
	C125.842529,194.507919 124.494179,198.382477 124.107986,202.306976
	C123.997993,203.424683 125.170662,204.668579 125.755142,205.854614
	C126.502724,204.664230 127.892738,203.478653 127.901703,202.282715
	C128.040283,183.794067 127.962555,165.303955 128.036331,146.814575
	C128.048828,143.681015 127.758049,139.741806 133.472839,141.951294
	C133.888916,154.966141 133.986969,167.932236 133.991119,180.898346
	C134.006134,227.957153 133.989670,275.015961 133.904907,322.537354
	C128.822525,323.588470 123.820335,324.176971 118.723267,324.776642
	C118.230049,327.011963 117.853958,328.716431 117.355591,330.975128
	C113.583374,330.975128 109.800911,331.150787 106.056580,330.850616
	C105.129257,330.776276 104.325638,329.158783 103.465164,328.250610
	C104.602463,327.769318 105.705292,327.006805 106.883850,326.862366
	C109.769165,326.508820 112.689453,326.440704 115.595657,326.257721
	C115.628349,325.645294 115.661041,325.032898 115.693733,324.420471
	C113.962700,323.721771 112.231659,323.023102 110.518608,322.331696
	C112.169647,317.926147 112.859718,317.861786 119.570351,321.409485
	C119.200851,319.597565 119.210175,317.580078 118.366592,316.025360
	C117.296036,314.052307 115.533203,312.454895 114.330750,310.053650
	C114.703186,309.101135 114.910179,308.790558 114.910637,308.479675
	C114.948807,282.436890 114.995773,256.393982 114.909637,230.351532
	C114.905922,229.230026 113.664162,228.112610 112.999123,226.993286
M125.999969,304.252991
	C125.441208,306.992218 124.847450,309.724915 124.334122,312.472626
	C123.875771,314.926025 123.416695,317.446533 127.513031,317.876984
	C127.513031,284.492035 127.513031,251.433807 127.513031,217.984848
	C122.755798,219.070938 124.078918,222.113785 124.399841,224.697845
	C124.906364,228.776199 125.899338,232.845200 125.927490,236.923401
	C126.080231,259.049866 126.000000,281.177948 125.999969,304.252991
z"/>
    <path fill="#D1FDFC" opacity="1.000000" stroke="none"
          d="
M741.978333,688.078308
	C743.327148,691.642151 743.948730,695.761963 746.165894,698.661865
	C751.999756,706.292175 747.763916,714.743347 748.779175,722.713074
	C748.976807,724.264404 745.946594,726.211731 744.437683,728.003784
	C743.910828,728.629517 742.961609,729.460999 743.087097,729.988892
	C744.565918,736.211304 739.571655,738.998596 736.150330,742.107971
	C732.904907,745.057373 728.612061,746.890259 724.675659,749.021790
	C723.468262,749.675537 721.930664,749.851990 720.520996,749.970642
	C718.030518,750.180420 715.953430,750.006653 713.640564,752.291809
	C712.017883,753.894775 707.700134,753.312500 704.716492,752.855103
	C701.156494,752.309326 697.735779,750.854919 694.237793,749.120117
	C694.004700,747.669739 693.993835,746.371887 693.542114,746.193970
	C684.735718,742.726746 679.450195,735.565552 676.004944,727.518738
	C672.638672,719.656311 673.376465,711.580261 679.072510,704.237793
	C684.086975,697.773987 691.579468,693.328674 694.526001,685.173889
	C694.885376,684.179382 696.009827,683.389160 696.914185,682.674500
	C710.079529,672.270264 727.098450,674.146973 738.173523,687.045105
	C738.882019,687.870178 740.684692,687.755676 741.978333,688.078308
M716.539795,694.326721
	C715.685425,694.224060 714.831116,694.121460 713.500366,693.506409
	C712.358032,693.279663 711.215637,693.052917 709.811646,692.080017
	C705.015381,692.190002 699.883667,691.298889 695.538391,692.754822
	C692.541992,693.758850 689.710022,697.650024 688.443359,700.891418
	C686.214966,706.593872 687.288513,712.924500 690.041199,718.106079
	C693.067322,723.802307 696.932495,728.756958 704.959534,729.444885
	C712.231384,730.068176 720.275696,728.228333 724.615234,721.935364
	C724.737000,721.314514 724.858765,720.693726 725.225830,719.372192
	C728.640137,714.170593 728.587830,709.020996 725.025269,703.487183
	C725.025269,703.487183 724.954895,703.054565 725.018066,702.317017
	C722.333557,699.816162 719.649048,697.315369 716.539795,694.326721
z"/>
    <path fill="#A1C3C2" opacity="1.000000" stroke="none"
          d="
M256.100494,274.399261
	C256.752350,275.838898 257.766663,277.739258 257.769867,279.641327
	C257.864319,335.284149 257.864197,390.927185 257.866302,446.570160
	C257.869019,518.872742 257.860168,591.175354 257.857971,663.477905
	C257.857758,670.071106 257.863434,670.073120 264.593750,670.073486
	C307.242218,670.075745 349.890656,670.077332 392.539124,670.078308
	C399.044800,670.078430 399.081146,670.076355 399.044464,663.248230
	C398.723053,603.473877 398.387390,543.699646 398.058044,483.925385
	C398.046387,481.811157 398.056519,479.696777 398.056519,477.238922
	C403.708221,477.728027 405.619324,482.032623 408.217224,485.115387
	C422.953979,502.602753 437.575531,520.188660 452.100769,537.852478
	C464.623077,553.080566 476.885803,568.522217 489.411835,583.747192
	C498.456116,594.740295 507.790344,605.494385 516.910217,616.426086
	C526.124084,627.470398 535.260132,638.580017 544.373596,649.707458
	C547.560364,653.598511 550.578674,657.627625 553.422485,661.776733
	C549.727966,658.468933 546.058350,655.171509 542.882996,651.452087
	C532.264771,639.014709 521.785645,626.457703 511.324371,613.887390
	C499.814789,600.057373 488.446320,586.109802 476.903076,572.308167
	C462.306549,554.855835 447.547424,537.539551 432.951935,520.086426
	C424.002960,509.385254 415.249176,498.521057 406.351349,487.776764
	C405.229706,486.422394 403.764099,485.352875 401.648621,483.407043
	C401.648621,485.830719 401.645447,487.689636 401.649109,489.548553
	C401.763489,547.856934 401.878540,606.165344 401.993652,664.473694
	C402.007233,671.354919 401.751923,671.647095 394.634705,671.648560
	C350.320831,671.657654 306.006927,671.652649 261.693085,671.617737
	C259.924835,671.616333 258.156860,671.266113 255.991699,671.036316
	C255.991699,538.703369 255.991699,406.782074 256.100494,274.399261
z"/>
    <path fill="#D7FFFF" opacity="1.000000" stroke="none"
          d="
M143.461914,136.916626
	C142.519440,135.833206 142.040115,134.827530 141.169052,133.000000
	C143.460617,133.000000 145.360809,133.000000 147.261002,133.000000
	C344.342651,133.000000 541.424316,132.977234 738.505859,133.139420
	C743.137512,133.143219 747.767395,135.223785 752.686890,136.587341
	C751.814087,136.895081 750.652649,137.000275 749.491150,137.000290
	C547.635803,137.003220 345.780426,136.998657 143.461914,136.916626
z"/>
    <path fill="#FFFFFF" opacity="1.000000" stroke="none"
          d="
M805.063477,748.916016
	C805.382141,744.677002 805.958435,740.439148 805.976318,736.198914
	C806.069214,714.202026 806.108093,692.203979 805.972900,670.207581
	C805.923462,662.178833 805.125122,654.154724 805.076172,646.125977
	C805.041016,640.341797 806.011658,634.550354 805.955139,628.767761
	C805.808228,613.740601 805.211426,598.717712 805.068481,583.690552
	C805.011841,577.741028 805.933594,571.786316 805.972900,565.831116
	C806.098511,546.761169 806.019714,527.689819 806.019714,508.618988
	C806.019653,399.726166 806.036560,290.833344 805.957581,181.940567
	C805.954407,177.595154 804.831055,173.259537 804.641052,168.901413
	C804.549316,166.795502 805.414490,164.647873 805.960754,162.231796
	C807.047058,162.464584 808.680969,162.811493 808.870667,163.536316
	C809.520447,166.019958 809.957397,168.636108 809.958008,171.201859
	C810.003845,359.098114 810.007019,546.994385 809.957336,734.890625
	C809.956177,739.472595 809.385803,744.061096 808.898865,748.627136
	C808.843018,749.151184 807.607849,749.549500 806.392334,749.804199
	C805.597900,749.373535 805.330688,749.144775 805.063477,748.916016
z"/>
    <path fill="#C1E9E9" opacity="1.000000" stroke="none"
          d="
M680.371826,671.013306
	C679.988098,540.821777 679.988098,410.748230 679.988098,280.674652
	C680.403870,280.593018 680.819641,280.511383 681.235413,280.429718
	C681.667236,281.786835 682.099060,283.143951 682.778748,284.687866
	C683.194885,286.508209 683.510132,288.141663 683.510437,289.775177
	C683.533691,414.934662 683.537415,540.094177 683.490295,665.253662
	C683.489441,667.490540 684.676758,670.587280 680.371826,671.013306
z"/>
    <path fill="#CFFFFF" opacity="1.000000" stroke="none"
          d="
M118.042801,793.426392
	C120.446754,792.473755 122.992683,791.872375 125.524467,791.216309
	C126.792854,790.887756 128.040482,790.111389 129.288971,790.129333
	C145.067474,790.356750 160.844315,790.950500 176.621826,790.959290
	C306.188049,791.031494 435.754333,790.989929 565.320496,791.117981
	C566.891663,791.119568 570.285034,788.751465 570.168335,793.517944
	C567.393921,793.888916 564.767822,793.983459 562.141785,793.983948
	C517.650269,793.993042 473.158691,793.990479 428.667145,793.990479
	C329.186066,793.990479 229.704956,793.974854 130.224014,794.092102
	C128.025223,794.094666 124.279411,791.903931 123.744324,796.696472
	C121.889191,795.716003 120.034050,794.735474 118.042801,793.426392
z"/>
    <path fill="#D2FFFE" opacity="1.000000" stroke="none"
          d="
M629.827332,772.678589
	C636.465210,776.909668 633.662170,783.219849 633.833374,788.559937
	C633.924683,791.405884 625.606140,795.054504 622.388916,794.933044
	C612.888489,794.574341 603.369080,794.746155 593.862183,794.509399
	C591.928528,794.461243 589.583679,794.069763 588.167114,792.923645
	C580.564758,786.772583 581.284607,779.811218 587.620483,773.011841
	C588.195557,772.394592 589.365417,772.050598 590.258118,772.052368
	C603.396973,772.078247 616.535706,772.184326 629.827332,772.678589
z"/>
    <path fill="#B9E0DF" opacity="1.000000" stroke="none"
          d="
M741.869080,687.732422
	C740.684692,687.755676 738.882019,687.870178 738.173523,687.045105
	C727.098450,674.146973 710.079529,672.270264 696.914185,682.674500
	C696.009827,683.389160 694.885376,684.179382 694.526001,685.173889
	C691.579468,693.328674 684.086975,697.773987 679.072510,704.237793
	C673.376465,711.580261 672.638672,719.656311 676.004944,727.518738
	C679.450195,735.565552 684.735718,742.726746 693.542114,746.193970
	C693.993835,746.371887 694.004700,747.669739 694.067627,748.744629
	C691.156494,747.291870 688.212158,743.872375 685.681580,744.155273
	C681.169373,744.659546 680.645447,741.212097 679.495483,739.308960
	C675.785828,733.169800 671.924438,726.844788 669.897766,720.060730
	C668.466675,715.270447 669.219543,709.481689 670.221008,704.378784
	C672.745056,691.517151 681.484985,682.628235 692.095886,676.367126
	C702.708435,670.104858 714.694824,670.028015 725.996582,675.343018
	C730.986572,677.689697 735.300598,681.498047 739.840881,684.755127
	C740.678711,685.356079 741.130066,686.495667 741.869080,687.732422
z"/>
    <path fill="#A1C3C2" opacity="1.000000" stroke="none"
          d="
M433.044861,305.589783
	C428.816498,301.433289 424.366150,297.087402 420.378723,292.351685
	C409.592102,279.540955 399.003479,266.563538 388.333038,253.654922
	C386.642426,251.609741 384.554291,249.786728 383.305298,247.502625
	C379.367157,240.300674 373.375824,239.326004 365.741821,239.713348
	C348.310364,240.597778 330.827393,240.878342 313.370819,240.734711
	C297.775696,240.606415 282.191193,239.452438 266.594238,239.056274
	C263.393707,238.974960 260.158783,240.246857 256.567932,240.977631
	C255.309662,237.159546 257.825562,237.071884 260.563354,237.081604
	C276.387085,237.137756 292.210876,237.184830 308.034668,237.186432
	C329.355347,237.188583 350.677490,237.270996 371.995605,237.024734
	C376.565674,236.971939 379.703247,238.290115 382.450226,241.933060
	C387.174652,248.198395 392.239960,254.211746 397.274048,260.237427
	C406.916260,271.778961 416.724030,283.183380 426.268097,294.804871
	C428.879639,297.984894 430.797699,301.734406 433.044861,305.589783
z"/>
    <path fill="#ECFFFF" opacity="1.000000" stroke="none"
          d="
M112.087448,391.493835
	C115.344360,392.049927 115.013474,394.628815 115.012253,397.162384
	C114.990318,442.656677 114.996338,488.150970 114.996307,533.645264
	C114.996307,539.144592 115.121033,544.648804 114.903748,550.139526
	C114.852432,551.436218 113.649994,552.687317 112.571648,553.976562
	C112.106972,540.036804 112.003616,526.080017 111.996880,512.123169
	C111.977539,472.066345 111.997330,432.009521 112.087448,391.493835
z"/>
    <path fill="#C1E9E9" opacity="1.000000" stroke="none"
          d="
M682.151428,240.886765
	C678.549194,240.921371 674.947021,240.985443 671.344788,240.986084
	C631.534790,240.993271 591.724854,240.997864 551.914856,240.969131
	C549.938416,240.967712 547.936707,240.374359 545.992188,240.552582
	C543.324890,240.797119 540.701172,241.516327 537.686646,242.032135
	C537.263733,241.604050 537.213074,241.175888 537.545105,240.381104
	C538.988770,239.123718 540.049744,238.232986 541.110718,237.342255
	C546.729492,237.315384 552.348206,237.288498 558.581604,237.658295
	C560.297852,238.298401 561.399292,238.753159 562.501221,238.754486
	C594.421387,238.792694 626.341736,238.802139 658.261780,238.725388
	C659.546997,238.722290 660.830139,237.834122 662.114258,237.358322
	C667.731628,237.313919 673.349060,237.269531 679.471436,237.601395
	C680.701355,238.947357 681.426392,239.917053 682.151428,240.886765
z"/>
    <path fill="#FFFFFF" opacity="1.000000" stroke="none"
          d="
M83.510696,567.949219
	C83.961777,606.317871 83.973518,644.732117 83.966873,683.619873
	C80.977364,684.545410 80.958969,682.708496 80.970428,680.523193
	C81.033173,668.560608 81.000320,656.597412 81.000313,644.634460
	C81.000313,620.542358 80.964355,596.450073 81.088928,572.358643
	C81.096466,570.900635 82.381004,569.449219 83.510696,567.949219
z"/>
    <path fill="#D7FFFF" opacity="1.000000" stroke="none"
          d="
M753.537354,772.087158
	C752.348877,773.440857 750.707153,775.817749 749.043640,775.833130
	C723.430908,776.069458 697.814880,776.057556 672.201294,775.865845
	C670.496521,775.853149 668.805969,773.932678 667.056274,772.534302
	C695.693848,772.116699 724.383850,772.064270 753.537354,772.087158
z"/>
    <path fill="#FFFFFF" opacity="1.000000" stroke="none"
          d="
M83.532242,211.944855
	C83.979477,249.318100 83.985413,286.740601 83.974915,324.638611
	C81.026810,325.528564 80.955223,323.744263 80.967514,321.534088
	C81.035889,309.236877 81.000320,296.939087 81.000313,284.641510
	C81.000313,261.874359 80.962090,239.106979 81.089935,216.340546
	C81.098091,214.888031 82.394066,213.442749 83.532242,211.944855
z"/>
    <path fill="#ECFFFF" opacity="1.000000" stroke="none"
          d="
M112.083862,699.468567
	C113.109161,700.178162 114.867340,701.344421 114.874748,702.521667
	C115.032417,727.564880 115.018845,752.609497 114.907539,777.653198
	C114.902649,778.753723 113.653046,779.848755 112.578613,780.961243
	C112.116447,753.960876 112.058907,726.945618 112.083862,699.468567
z"/>
    <path fill="#8AA8A7" opacity="1.000000" stroke="none"
          d="
M661.655212,237.223938
	C660.830139,237.834122 659.546997,238.722290 658.261780,238.725388
	C626.341736,238.802139 594.421387,238.792694 562.501221,238.754486
	C561.399292,238.753159 560.297852,238.298401 559.039429,237.706635
	C566.525208,237.271240 574.167664,237.118591 581.810242,237.108963
	C608.272217,237.075638 634.734192,237.092056 661.655212,237.223938
z"/>
    <path fill="#ECFFFF" opacity="1.000000" stroke="none"
          d="
M114.692070,135.992783
	C114.994652,155.404892 115.042282,174.794312 114.907265,194.182449
	C114.896141,195.780685 113.645271,197.370285 112.564690,198.986191
	C112.106522,177.989761 112.054100,156.971054 112.086899,135.493515
	C112.911293,135.346390 113.650459,135.658066 114.692070,135.992783
z"/>
    <path fill="#C1E9E9" opacity="1.000000" stroke="none"
          d="
M537.624390,392.317932
	C538.888550,392.883026 540.826660,393.781311 540.842041,394.711395
	C541.044617,406.975098 541.063110,419.244293 540.915283,431.509583
	C540.878052,434.600922 539.191162,434.806702 537.210693,432.023743
	C537.414307,429.608887 537.535095,427.885376 537.655884,426.161835
	C537.572083,414.996552 537.488281,403.831238 537.624390,392.317932
z"/>
    <path fill="#A1C3C2" opacity="1.000000" stroke="none"
          d="
M449.021637,324.607849
	C445.813843,321.803619 442.420959,318.779266 439.431061,315.398560
	C437.051086,312.707489 435.163269,309.581207 433.050781,306.295868
	C435.606110,308.162720 438.488770,310.109985 440.652100,312.666107
	C443.716309,316.286682 446.250031,320.356232 449.021637,324.607849
z"/>
    <path fill="#C1E9E9" opacity="1.000000" stroke="none"
          d="
M537.297852,272.420502
	C538.265808,272.877411 539.907043,273.835388 539.861145,274.704315
	C539.525024,281.072510 538.850891,287.422882 537.933350,293.915131
	C537.452209,286.994385 537.321106,279.937378 537.297852,272.420502
z"/>
    <path fill="#D1FFFD" opacity="1.000000" stroke="none"
          d="
M112.010330,202.334335
	C115.489105,202.551559 117.603386,204.416931 117.826622,207.829865
	C117.869362,208.483292 116.388695,209.921463 115.839684,209.815216
	C112.716370,209.210739 109.695610,208.206436 109.051178,204.393387
	C109.023758,204.231125 109.025360,204.063950 109.006241,203.532806
	C109.951729,203.000534 110.904427,202.834518 112.010330,202.334335
z"/>
    <path fill="#FFFFFF" opacity="1.000000" stroke="none"
          d="
M170.512985,189.945633
	C171.183823,195.393539 171.415619,200.890060 171.411285,206.649719
	C168.341690,206.268723 167.743347,204.400803 167.945633,201.718613
	C168.180450,198.605103 167.859375,195.449570 168.096024,192.336349
	C168.158813,191.510300 169.383011,190.772537 170.512985,189.945633
z"/>
    <path fill="#8AA8A7" opacity="1.000000" stroke="none"
          d="
M537.251587,426.269653
	C537.535095,427.885376 537.414307,429.608887 537.145996,431.648987
	C535.780640,430.783203 534.562805,429.600830 533.211609,427.772919
	C532.412781,426.403320 531.747375,425.679199 531.081909,424.955109
	C530.534729,424.113495 529.987549,423.271881 529.232300,421.878845
	C528.998779,420.674347 528.973389,420.021271 528.947998,419.368225
	C531.581116,421.704651 534.214172,424.041046 537.251587,426.269653
z"/>
    <path fill="#ECFFFF" opacity="1.000000" stroke="none"
          d="
M768.227905,143.475006
	C773.913940,143.719635 780.520813,150.910461 780.184448,156.849045
	C777.855164,154.426636 775.909851,151.696808 773.737610,149.161285
	C772.091431,147.239822 770.156067,145.566116 768.227905,143.475006
z"/>
    <path fill="#C1E9E9" opacity="1.000000" stroke="none"
          d="
M683.436646,265.623413
	C680.247986,261.349701 680.029541,254.165253 683.169434,250.971298
	C683.583191,255.700165 683.608643,260.445709 683.436646,265.623413
z"/>
    <path fill="#D1FFFD" opacity="1.000000" stroke="none"
          d="
M141.563904,772.090576
	C141.045975,774.003662 140.090942,775.841736 139.135925,777.679749
	C137.432571,776.001709 135.729202,774.323669 134.032593,772.269531
	C136.401810,771.934143 138.764313,771.974854 141.563904,772.090576
z"/>
    <path fill="#CFFFFF" opacity="1.000000" stroke="none"
          d="
M577.213257,788.175354
	C576.684509,787.744263 576.082153,787.050171 576.226929,786.592224
	C577.490479,782.594360 576.357239,779.132019 574.039673,775.525879
	C579.038147,775.659058 580.973389,782.772888 577.213257,788.175354
z"/>
    <path fill="#D7FFFF" opacity="1.000000" stroke="none"
          d="
M758.934937,137.437500
	C763.078247,136.718689 765.737305,139.087860 767.930115,142.608276
	C763.889709,143.080414 761.087952,141.068649 758.934937,137.437500
z"/>
    <path fill="#00FFFF" opacity="1.000000" stroke="none"
          d="
M209.859924,156.999680
	C207.398102,156.828918 205.367752,156.658157 203.337418,156.487396
	C203.358475,155.956390 203.379517,155.425400 203.400574,154.894409
	C207.183517,154.894409 210.966446,154.894409 214.749390,154.894409
	C214.781372,155.342331 214.813354,155.790253 214.845337,156.238174
	C213.327362,156.492004 211.809372,156.745850 209.859924,156.999680
z"/>
    <path fill="#A1C3C2" opacity="1.000000" stroke="none"
          d="
M521.016479,412.971161
	C518.341370,409.562347 515.666199,406.153564 513.246582,402.467773
	C513.978699,402.468079 514.455322,402.745300 514.931946,403.022522
	C515.106140,403.109039 515.280396,403.195526 515.717407,403.683075
	C516.430603,404.417755 516.881165,404.751373 517.331726,405.085022
	C517.457336,405.266022 517.582947,405.446991 517.837158,406.246033
	C518.831238,407.598938 519.696655,408.333710 520.562012,409.068481
	C520.674072,409.200500 520.786133,409.332520 520.929932,410.092529
	C520.979980,411.470734 520.998230,412.220947 521.016479,412.971161
z"/>
    <path fill="#808080" opacity="1.000000" stroke="none"
          d="
M208.010864,240.950592
	C207.502655,235.024841 211.716400,237.464447 214.632996,237.000717
	C214.601959,241.547775 211.030701,240.926483 208.010864,240.950592
z"/>
    <path fill="#8AA8A7" opacity="1.000000" stroke="none"
          d="
M521.118286,413.207275
	C520.998230,412.220947 520.979980,411.470734 520.987549,410.345764
	C523.050476,412.397552 525.087646,414.824066 526.789551,417.608124
	C526.054382,417.935120 525.654541,417.904602 525.254639,417.874084
	C524.953369,417.675873 524.652039,417.477692 524.197205,416.706055
	C523.392944,415.405121 522.742188,414.677612 522.091492,413.950073
	C521.801025,413.781189 521.510620,413.612305 521.118286,413.207275
z"/>
    <path fill="#A1C3C2" opacity="1.000000" stroke="none"
          d="
M501.999084,389.001282
	C499.338806,385.912231 496.678497,382.823151 494.254425,379.448486
	C494.947601,379.444519 495.404572,379.726135 495.861572,380.007751
	C496.884064,381.096161 497.906555,382.184570 499.057068,383.909058
	C500.014893,385.047607 500.844696,385.550049 501.674500,386.052490
	C501.754547,386.208191 501.834625,386.363892 501.930969,387.106873
	C501.964539,388.129852 501.981812,388.565552 501.999084,389.001282
z"/>
    <path fill="#8AA8A7" opacity="1.000000" stroke="none"
          d="
M459.944672,338.019257
	C459.439270,337.464630 458.933838,336.910004 458.193726,335.835205
	C456.946869,334.227478 455.934662,333.139923 454.922485,332.052399
	C454.922485,332.052399 455.001892,332.044769 455.017029,331.721191
	C455.076813,331.174530 455.121490,330.951477 455.166138,330.728455
	C458.090912,333.914917 461.015656,337.101349 463.667664,340.653656
	C462.930908,341.012268 462.466888,341.005066 462.002869,340.997833
	C462.002869,340.997833 462.000000,341.000000 461.964325,340.677612
	C461.267334,339.576599 460.605988,338.797913 459.944672,338.019257
z"/>
    <path fill="#ECFFFF" opacity="1.000000" stroke="none"
          d="
M774.527954,759.163818
	C774.842346,764.072815 770.461182,765.846985 767.206055,768.845337
	C766.947510,767.490784 767.014954,766.011597 767.082336,764.532349
	C767.390930,764.819702 767.699524,765.106995 768.008118,765.394348
	C770.062805,763.367981 772.117493,761.341675 774.527954,759.163818
z"/>
    <path fill="#ECFFFF" opacity="1.000000" stroke="none"
          d="
M655.620361,778.019043
	C655.973267,781.300171 655.984375,784.727966 655.971375,788.620728
	C652.389893,785.174194 652.172363,781.622498 655.620361,778.019043
z"/>
    <path fill="#D7FFFF" opacity="1.000000" stroke="none"
          d="
M136.796448,137.479630
	C137.851181,136.937973 138.770508,136.758026 139.878983,136.847870
	C139.402161,139.191498 138.736191,141.265350 138.070221,143.339203
	C137.401047,143.203201 136.731873,143.067215 136.062698,142.931229
	C136.262146,141.234604 136.461594,139.537964 136.796448,137.479630
z"/>
    <path fill="#FFFFFF" opacity="1.000000" stroke="none"
          d="
M782.026489,749.535461
	C780.950500,751.905823 779.847168,753.919617 778.363892,755.915161
	C778.630005,753.022278 779.276184,750.147705 780.077026,746.584656
	C780.985962,747.811279 781.492615,748.495056 782.026489,749.535461
z"/>
    <path fill="#A1C3C2" opacity="1.000000" stroke="none"
          d="
M473.889221,355.140869
	C471.899170,352.684418 469.909088,350.227997 467.945129,347.406921
	C468.950226,347.774414 469.929260,348.506561 471.055420,349.873718
	C472.001740,351.026001 472.800934,351.543243 473.600128,352.060486
	C473.676361,352.230713 473.752594,352.400909 473.877869,353.181335
	C473.914337,354.241333 473.901794,354.691101 473.889221,355.140869
z"/>
    <path fill="#A1C3C2" opacity="1.000000" stroke="none"
          d="
M487.022980,370.958069
	C484.942871,368.316864 482.862762,365.675690 481.114624,362.946625
	C482.209198,363.523682 482.971771,364.188599 483.879547,365.459656
	C484.847015,366.734406 485.669281,367.403015 486.491577,368.071594
	C486.592102,368.214844 486.692627,368.358093 486.897217,369.070587
	C487.008545,370.079224 487.015747,370.518646 487.022980,370.958069
z"/>
    <path fill="#B9E0DF" opacity="1.000000" stroke="none"
          d="
M650.405029,671.085022
	C651.980042,667.801758 654.379211,668.557068 656.939941,670.575439
	C654.945984,671.047363 652.883911,671.146057 650.405029,671.085022
z"/>
    <path fill="#D4FFFD" opacity="1.000000" stroke="none"
          d="
M122.317337,336.905365
	C121.239655,335.222687 120.493935,333.621490 119.748215,332.020264
	C120.185783,331.824249 120.623344,331.628235 121.060913,331.432190
	C121.994637,333.007843 122.928360,334.583466 123.930573,336.496643
	C123.549141,336.885071 123.099220,336.935944 122.317337,336.905365
z"/>
    <path fill="#D7FFFF" opacity="1.000000" stroke="none"
          d="
M805.007080,749.285278
	C805.330688,749.144775 805.597900,749.373535 805.956421,749.853455
	C805.186096,751.686707 808.034668,754.910583 803.455933,755.075684
	C803.679443,753.298950 804.315063,751.476746 805.007080,749.285278
z"/>
    <path fill="#ECFFFF" opacity="1.000000" stroke="none"
          d="
M764.976562,768.628784
	C763.316650,769.915344 761.510620,770.869934 759.362854,771.856934
	C759.684753,768.633728 760.503662,765.628967 764.976562,768.628784
z"/>
    <path fill="#8AA8A7" opacity="1.000000" stroke="none"
          d="
M682.393799,240.958618
	C681.426392,239.917053 680.701355,238.947357 679.925171,237.679077
	C681.189758,238.401047 682.505615,239.421600 683.715698,240.800858
	C683.285400,241.116516 682.960815,241.073486 682.393799,240.958618
z"/>
    <path fill="#A1C3C2" opacity="1.000000" stroke="none"
          d="
M455.138885,330.381348
	C455.121490,330.951477 455.076813,331.174530 454.978210,331.735016
	C453.908875,331.024994 452.893494,329.977600 452.043304,328.559418
	C452.208496,328.188660 452.636475,328.132782 452.636475,328.132782
	C453.461517,328.766602 454.286591,329.400391 455.138885,330.381348
z"/>
    <path fill="#A1C3C2" opacity="1.000000" stroke="none"
          d="
M525.201782,418.223389
	C525.654541,417.904602 526.054382,417.935120 526.756958,417.975952
	C527.528015,418.331879 527.996399,418.677490 528.706421,419.195679
	C528.973389,420.021271 528.998779,420.674347 529.017578,421.653992
	C527.723572,420.844635 526.436279,419.708679 525.201782,418.223389
z"/>
    <path fill="#8AA8A7" opacity="1.000000" stroke="none"
          d="
M540.749756,237.226807
	C540.049744,238.232986 538.988770,239.123718 537.618713,240.061096
	C538.335999,239.108963 539.362427,238.110168 540.749756,237.226807
z"/>
    <path fill="#CFFFFF" opacity="1.000000" stroke="none"
          d="
M115.099777,788.356812
	C116.101906,789.460083 117.030464,790.910217 117.930695,792.726929
	C116.943657,791.630249 115.984932,790.166992 115.099777,788.356812
z"/>
    <path fill="#A1C3C2" opacity="1.000000" stroke="none"
          d="
M467.946167,346.672302
	C466.949982,346.313477 465.942566,345.598511 465.162231,344.531555
	C465.790253,344.168945 466.191193,344.158325 466.592163,344.147705
	C467.039734,344.870514 467.487305,345.593323 467.946167,346.672302
z"/>
    <path fill="#8AA8A7" opacity="1.000000" stroke="none"
          d="
M473.938477,355.343384
	C473.901794,354.691101 473.914337,354.241333 473.938843,353.454315
	C474.876251,353.876556 475.801758,354.636017 476.395844,355.729370
	C475.422028,356.020508 474.779663,355.977753 474.137268,355.935028
	C474.137268,355.935028 473.987762,355.545929 473.938477,355.343384
z"/>
    <path fill="#8AA8A7" opacity="1.000000" stroke="none"
          d="
M553.592285,664.050110
	C554.894592,664.902832 556.084717,666.060303 557.168518,667.565063
	C555.868164,666.726501 554.674133,665.540649 553.592285,664.050110
z"/>
    <path fill="#8AA8A7" opacity="1.000000" stroke="none"
          d="
M477.984833,360.010651
	C477.669983,359.918030 477.405762,359.747101 477.075958,358.921753
	C477.000946,357.844452 477.042206,357.343201 477.083466,356.841949
	C478.008575,357.685486 478.933716,358.529053 479.565521,359.698853
	C478.843079,360.020294 478.413971,360.015472 477.984833,360.010651
z"/>
    <path fill="#8AA8A7" opacity="1.000000" stroke="none"
          d="
M487.192352,371.225159
	C487.015747,370.518646 487.008545,370.079224 487.005219,369.309875
	C487.923584,369.810242 488.838013,370.640564 489.729645,371.820770
	C488.925140,371.944519 488.143433,371.718414 487.192352,371.225159
z"/>
    <path fill="#8AA8A7" opacity="1.000000" stroke="none"
          d="
M505.956268,394.029968
	C505.639557,393.905640 505.390198,393.699768 505.115784,392.876831
	C504.959351,391.937988 504.895325,391.534607 504.940674,391.041809
	C505.050049,390.952393 505.268036,390.772705 505.268036,390.772705
	C506.165527,391.611603 507.062988,392.450531 507.923035,393.701111
	C507.885620,394.112793 507.709991,394.285828 507.427124,394.194550
	C506.748230,394.078857 506.352264,394.054413 505.956268,394.029968
z"/>
    <path fill="#8AA8A7" opacity="1.000000" stroke="none"
          d="
M490.127136,374.938660
	C489.965607,374.280731 489.804077,373.622803 489.728027,372.635071
	C490.703064,373.017120 491.592560,373.728973 492.208466,374.759247
	C491.332306,375.031342 490.729706,374.985016 490.127136,374.938660
z"/>
    <path fill="#8AA8A7" opacity="1.000000" stroke="none"
          d="
M508.116241,396.944885
	C508.116241,396.944885 507.950073,396.574707 507.937622,396.057190
	C507.853455,395.121704 507.781738,394.703766 507.709991,394.285828
	C507.709991,394.285828 507.885620,394.112793 507.973450,394.026245
	C508.834930,394.793274 509.608582,395.646790 510.145477,396.808655
	C509.311218,397.059601 508.713715,397.002228 508.116241,396.944885
z"/>
    <path fill="#A1C3C2" opacity="1.000000" stroke="none"
          d="
M508.142853,397.313110
	C508.713715,397.002228 509.311218,397.059601 510.209045,397.095276
	C510.898895,397.679779 511.288391,398.286011 511.602112,399.263245
	C510.407379,398.983276 509.288422,398.332336 508.142853,397.313110
z"/>
    <path fill="#B9E0DF" opacity="1.000000" stroke="none"
          d="
M566.373169,671.094849
	C566.857117,668.209534 568.260803,668.521179 569.962524,670.583984
	C568.926636,671.035400 567.841553,671.144958 566.373169,671.094849
z"/>
    <path fill="#8AA8A7" opacity="1.000000" stroke="none"
          d="
M502.169952,389.156982
	C501.981812,388.565552 501.964539,388.129852 501.964508,387.367310
	C503.049622,388.061005 504.117462,389.081482 505.226685,390.437317
	C505.268036,390.772705 505.050049,390.952393 504.718445,390.874207
	C503.894714,390.543488 503.402557,390.290955 502.910400,390.038422
	C502.750244,389.773224 502.560394,389.531311 502.169952,389.156982
z"/>
    <path fill="#8AA8A7" opacity="1.000000" stroke="none"
          d="
M495.912018,379.671265
	C495.404572,379.726135 494.947601,379.444519 494.232666,379.086029
	C493.784637,378.759308 493.554413,378.554596 493.099609,377.910187
	C492.942841,376.951752 492.970490,376.478180 492.998108,376.004639
	C493.986237,377.114685 494.974335,378.224701 495.912018,379.671265
z"/>
    <path fill="#A1C3C2" opacity="1.000000" stroke="none"
          d="
M492.962036,375.731567
	C492.970490,376.478180 492.942841,376.951752 492.905029,377.782776
	C491.978485,377.295898 491.062103,376.451538 490.136414,375.272949
	C490.729706,374.985016 491.332306,375.031342 492.238342,375.070618
	C492.669861,375.195221 492.797913,375.326874 492.962036,375.731567
z"/>
    <path fill="#A1C3C2" opacity="1.000000" stroke="none"
          d="
M477.056824,356.612244
	C477.042206,357.343201 477.000946,357.844452 476.942566,358.723877
	C475.999084,358.269226 475.072723,357.436432 474.141846,356.269318
	C474.779663,355.977753 475.422028,356.020508 476.387543,356.055725
	C476.710663,356.048187 477.030212,356.382538 477.056824,356.612244
z"/>
    <path fill="#8AA8A7" opacity="1.000000" stroke="none"
          d="
M520.592651,408.757874
	C519.696655,408.333710 518.831238,407.598938 517.934448,406.561859
	C518.809814,406.988831 519.716614,407.718048 520.592651,408.757874
z"/>
    <path fill="#8AA8A7" opacity="1.000000" stroke="none"
          d="
M486.543884,367.773438
	C485.669281,367.403015 484.847015,366.734406 483.968201,365.797119
	C484.806519,366.177399 485.701355,366.826355 486.543884,367.773438
z"/>
    <path fill="#A1C3C2" opacity="1.000000" stroke="none"
          d="
M462.059448,341.318604
	C462.466888,341.005066 462.930908,341.012268 463.741943,340.991028
	C464.354065,341.483978 464.619232,342.005432 464.803406,342.827606
	C463.853607,342.632019 462.984833,342.135712 462.059448,341.318604
z"/>
    <path fill="#8AA8A7" opacity="1.000000" stroke="none"
          d="
M514.897583,402.681763
	C514.455322,402.745300 513.978699,402.468079 513.239990,402.099060
	C512.867432,401.659821 512.756958,401.312317 512.727905,400.702881
	C513.493958,401.074249 514.178650,401.707642 514.897583,402.681763
z"/>
    <path fill="#8AA8A7" opacity="1.000000" stroke="none"
          d="
M501.696106,385.738770
	C500.844696,385.550049 500.014893,385.047607 499.099213,384.254211
	C499.914795,384.450500 500.816254,384.937744 501.696106,385.738770
z"/>
    <path fill="#8AA8A7" opacity="1.000000" stroke="none"
          d="
M473.648071,351.741333
	C472.800934,351.543243 472.001740,351.026001 471.112854,350.223267
	C471.914124,350.432526 472.805084,350.927338 473.648071,351.741333
z"/>
    <path fill="#8AA8A7" opacity="1.000000" stroke="none"
          d="
M517.425293,404.828369
	C516.881165,404.751373 516.430603,404.417755 515.946289,403.864014
	C516.447937,403.953156 516.983337,404.262421 517.425293,404.828369
z"/>
    <path fill="#CFFFFF" opacity="1.000000" stroke="none"
          d="
M572.317139,793.712585
	C572.435669,792.939026 572.878174,792.122070 573.573364,791.161682
	C573.431091,791.901855 573.036011,792.785583 572.317139,793.712585
z"/>
    <path fill="#ECFFFF" opacity="1.000000" stroke="none"
          d="
M660.015991,793.378418
	C661.045471,793.134033 662.248535,793.233459 663.711304,793.584473
	C662.710510,793.798035 661.450134,793.760132 660.015991,793.378418
z"/>
    <path fill="#A1C3C2" opacity="1.000000" stroke="none"
          d="
M478.054199,360.343445
	C478.413971,360.015472 478.843079,360.020294 479.594177,360.021118
	C480.084259,360.412170 480.252411,360.807220 480.343567,361.521332
	C479.552277,361.452301 478.837952,361.064270 478.054199,360.343445
z"/>
    <path fill="#D7FFFF" opacity="1.000000" stroke="none"
          d="
M802.377319,758.983521
	C802.154419,758.250122 802.261169,757.371460 802.605957,756.257690
	C802.798340,756.961182 802.752625,757.899658 802.377319,758.983521
z"/>
    <path fill="#8AA8A7" opacity="1.000000" stroke="none"
          d="
M466.406586,343.981079
	C466.191193,344.158325 465.790253,344.168945 465.086548,344.187805
	C464.783813,344.196014 464.644714,343.732971 464.729645,343.506653
	C465.283386,343.458374 465.752197,343.636414 466.406586,343.981079
z"/>
    <path fill="#CFFFFF" opacity="1.000000" stroke="none"
          d="
M575.226929,789.921753
	C575.288818,789.451599 575.569336,789.051636 576.069946,788.807007
	C576.008545,789.305542 575.727051,789.648743 575.226929,789.921753
z"/>
    <path fill="#8AA8A7" opacity="1.000000" stroke="none"
          d="
M452.546600,327.943939
	C452.636475,328.132782 452.208496,328.188660 451.993591,328.218689
	C451.739807,328.073029 451.700867,327.897308 451.756592,327.468872
	C452.142670,327.295135 452.344482,327.474792 452.546600,327.943939
z"/>
    <path fill="#8AA8A7" opacity="1.000000" stroke="none"
          d="
M557.168579,669.201294
	C557.631104,668.835938 557.890442,668.956543 558.078186,669.495117
	C557.747925,669.647644 557.400879,669.572327 557.168579,669.201294
z"/>
    <path fill="#A1C3C2" opacity="1.000000" stroke="none"
          d="
M454.942566,332.406921
	C455.934662,333.139923 456.946869,334.227478 457.986786,335.643646
	C456.997223,334.901978 455.979919,333.831696 454.942566,332.406921
z"/>
    <path fill="#A1C3C2" opacity="1.000000" stroke="none"
          d="
M459.971313,338.364349
	C460.605988,338.797913 461.267334,339.576599 461.965393,340.676208
	C461.334045,340.234589 460.665985,339.472015 459.971313,338.364349
z"/>
    <path fill="#A1C3C2" opacity="1.000000" stroke="none"
          d="
M502.934082,390.382263
	C503.402557,390.290955 503.894714,390.543488 504.609070,390.963623
	C504.895325,391.534607 504.959351,391.937988 505.026245,392.647949
	C504.338654,392.211731 503.648224,391.468933 502.934082,390.382263
z"/>
    <path fill="#A1C3C2" opacity="1.000000" stroke="none"
          d="
M522.086792,414.278351
	C522.742188,414.677612 523.392944,415.405121 524.082642,416.455872
	C523.441772,416.054962 522.761902,415.330811 522.086792,414.278351
z"/>
    <path fill="#A1C3C2" opacity="1.000000" stroke="none"
          d="
M531.075806,425.280396
	C531.747375,425.679199 532.412781,426.403320 533.100952,427.457092
	C532.438965,427.059723 531.754333,426.332703 531.075806,425.280396
z"/>
    <path fill="#A1C3C2" opacity="1.000000" stroke="none"
          d="
M507.427124,394.194550
	C507.781738,394.703766 507.853455,395.121704 507.890015,395.859985
	C507.261047,395.666840 506.667297,395.153381 506.014893,394.334961
	C506.352264,394.054413 506.748230,394.078857 507.427124,394.194550
z"/>
    <path fill="#000000" opacity="1.000000" stroke="none"
          d="
M112.166130,666.993103
	C111.004395,666.743896 109.842651,666.494690 108.288139,666.161255
	C107.713867,667.775879 107.058182,669.619385 106.182327,672.081970
	C106.182327,641.822021 106.182327,612.219299 106.182327,583.181519
	C107.950676,583.181519 109.821709,583.181519 111.929245,583.181519
	C111.916000,583.024231 111.970512,583.671509 112.013229,585.135498
	C112.056320,612.965820 112.111221,639.979431 112.166130,666.993103
z"/>
    <path fill="#ECFFFF" opacity="1.000000" stroke="none"
          d="
M112.571716,666.976379
	C112.111221,639.979431 112.056320,612.965820 112.087189,585.493469
	C113.113808,586.577026 114.863647,588.113647 114.874535,589.662476
	C115.046692,614.155579 115.025826,638.650391 114.909737,663.144165
	C114.903694,664.419067 113.650108,665.687988 112.571716,666.976379
z"/>
    <path fill="#D1FFFD" opacity="1.000000" stroke="none"
          d="
M792.760010,642.839355
	C796.196716,642.011475 796.248779,644.152588 795.671692,646.063843
	C795.435120,646.847473 793.761169,647.197144 792.741089,647.744202
	C792.652588,646.186035 792.564087,644.627869 792.760010,642.839355
z"/>
    <path fill="#D1FFFD" opacity="1.000000" stroke="none"
          d="
M794.204895,493.798401
	C794.568848,493.195953 794.995483,492.893005 795.422180,492.590088
	C795.537048,493.037659 795.651978,493.485260 795.766907,493.932800
	C795.267151,493.987854 794.767395,494.042877 794.204895,493.798401
z"/>
    <path fill="#000000" opacity="1.000000" stroke="none"
          d="
M205.595352,183.724152
	C206.184586,178.681259 209.741135,182.216415 210.637726,181.448090
	C212.382614,182.879974 213.786560,184.964661 214.983002,184.851685
	C220.033249,184.374786 221.633453,188.674179 224.474686,191.126358
	C225.860840,192.322723 226.710983,194.245972 227.509613,195.975983
	C227.960693,196.953079 228.353790,198.660217 227.848770,199.259033
	C224.999390,202.637573 221.845886,205.757965 218.860184,209.024948
	C218.385757,209.544083 218.361633,210.461258 217.911911,211.019150
	C216.856964,212.327911 215.788620,213.703186 214.436523,214.629395
	C214.168228,214.813171 212.726181,212.829941 211.608994,212.354385
	C210.469437,211.869308 209.063232,212.010666 208.679382,211.971100
	C207.455246,213.335007 206.221054,214.939850 206.070465,214.843933
	C203.132843,212.972305 200.246078,210.997574 197.516449,208.832687
	C196.172119,207.766495 195.166199,206.273621 193.242569,204.116409
	C192.457092,202.263733 191.207886,199.317307 189.958679,196.370880
	C190.372421,196.211380 190.786179,196.051895 191.199921,195.892395
	C191.643661,196.917557 192.087418,197.942703 192.531158,198.967865
	C192.955185,198.957672 193.379196,198.947479 193.803223,198.937286
	C193.803223,196.972580 193.803223,195.007858 193.803223,192.185974
	C197.277145,190.229828 197.592789,182.193893 205.595352,183.724152
z"/>
    <path fill="#000000" opacity="1.000000" stroke="none"
          d="
M112.165169,309.994568
	C112.075188,310.478394 111.985214,310.962219 111.807045,311.920258
	C110.636665,310.957947 109.626251,310.127136 108.049873,308.830994
	C107.765770,311.137543 107.533447,313.023712 107.301125,314.909882
	C107.084557,314.895508 106.867981,314.881134 106.651413,314.866791
	C106.651413,285.448822 106.651413,256.030884 106.651413,227.181000
	C108.219894,226.942032 110.059517,226.661774 111.950058,227.155411
	C112.055710,255.284393 112.110443,282.639496 112.165169,309.994568
z"/>
    <path fill="#ECFFFF" opacity="1.000000" stroke="none"
          d="
M112.470978,309.995636
	C112.110443,282.639496 112.055710,255.284393 112.083084,227.467255
	C112.165199,227.005219 112.582184,227.000305 112.790649,226.996796
	C113.664162,228.112610 114.905922,229.230026 114.909637,230.351532
	C114.995773,256.393982 114.948807,282.436890 114.910637,308.479675
	C114.910179,308.790558 114.703186,309.101135 114.296303,309.706512
	C113.592262,309.999695 113.184532,309.998199 112.470978,309.995636
z"/>
    <path fill="#D1FFFD" opacity="1.000000" stroke="none"
          d="
M125.999985,303.779236
	C126.000000,281.177948 126.080231,259.049866 125.927490,236.923401
	C125.899338,232.845200 124.906364,228.776199 124.399841,224.697845
	C124.078918,222.113785 122.755798,219.070938 127.513031,217.984848
	C127.513031,251.433807 127.513031,284.492035 127.513031,317.876984
	C123.416695,317.446533 123.875771,314.926025 124.334122,312.472626
	C124.847450,309.724915 125.441208,306.992218 125.999985,303.779236
z"/>
    <path fill="#050909" opacity="1.000000" stroke="none"
          d="
M724.954895,703.054565
	C724.954895,703.054565 725.025269,703.487183 724.726196,703.945679
	C721.541992,709.735535 720.711731,714.994263 724.980469,720.072876
	C724.858765,720.693726 724.737000,721.314514 724.024414,721.959167
	C722.121521,722.136292 720.148865,721.799377 719.609558,722.526123
	C717.004333,726.036865 713.609924,726.741638 709.591248,726.391541
	C707.258606,726.188293 704.893860,726.354553 702.099243,726.354553
	C701.732422,726.027710 700.624512,725.221497 699.740540,724.218018
	C697.365540,721.521790 695.086426,718.741211 692.856079,715.742798
	C692.866882,715.331482 692.790833,715.171326 692.785400,714.684265
	C692.778259,713.923340 692.700562,713.489319 692.740234,712.625671
	C692.821411,710.132629 692.785278,708.069214 692.865845,705.668091
	C693.021729,704.618164 693.060791,703.906006 693.431580,703.106445
	C694.425903,701.998291 695.088440,700.977417 695.895874,699.797607
	C696.040771,699.638672 696.147827,699.222107 696.546387,699.220215
	C698.782715,698.384033 700.569641,697.405090 702.466675,696.739929
	C711.409668,693.604004 718.198669,698.305786 724.954895,703.054565
z"/>
    <path fill="#B9E0DF" opacity="1.000000" stroke="none"
          d="
M696.147827,699.222107
	C696.147827,699.222107 696.040771,699.638672 695.554260,699.825806
	C694.411804,701.073242 693.755798,702.133545 693.099792,703.193787
	C693.060791,703.906006 693.021729,704.618164 692.558899,705.852234
	C692.297668,708.601196 692.460205,710.828247 692.622803,713.055359
	C692.700562,713.489319 692.778259,713.923340 692.625916,714.769653
	C692.520264,715.452759 692.644775,715.723389 692.769226,715.994080
	C695.086426,718.741211 697.365540,721.521790 699.740540,724.218018
	C700.624512,725.221497 701.732422,726.027710 702.099243,726.354553
	C704.893860,726.354553 707.258606,726.188293 709.591248,726.391541
	C713.609924,726.741638 717.004333,726.036865 719.609558,722.526123
	C720.148865,721.799377 722.121521,722.136292 723.720947,722.087891
	C720.275696,728.228333 712.231384,730.068176 704.959534,729.444885
	C696.932495,728.756958 693.067322,723.802307 690.041199,718.106079
	C687.288513,712.924500 686.214966,706.593872 688.443359,700.891418
	C689.710022,697.650024 692.541992,693.758850 695.538391,692.754822
	C699.883667,691.298889 705.015381,692.190002 709.534790,692.522888
	C705.691895,693.867065 702.049988,694.556885 698.604309,695.793579
	C697.515564,696.184387 696.951843,698.037964 696.147827,699.222107
z"/>
    <path fill="#8AA8A7" opacity="1.000000" stroke="none"
          d="
M696.546387,699.220215
	C696.951843,698.037964 697.515564,696.184387 698.604309,695.793579
	C702.049988,694.556885 705.691895,693.867065 709.665649,692.895996
	C711.215637,693.052917 712.358032,693.279663 713.860901,694.040405
	C715.135803,694.654419 716.050171,694.734436 716.964539,694.814514
	C719.649048,697.315369 722.333557,699.816162 724.986450,702.685791
	C718.198669,698.305786 711.409668,693.604004 702.466675,696.739929
	C700.569641,697.405090 698.782715,698.384033 696.546387,699.220215
z"/>
    <path fill="#5DA9A9" opacity="1.000000" stroke="none"
          d="
M725.103149,719.722534
	C720.711731,714.994263 721.541992,709.735535 724.710693,704.164307
	C728.587830,709.020996 728.640137,714.170593 725.103149,719.722534
z"/>
    <path fill="#B9E0DF" opacity="1.000000" stroke="none"
          d="
M716.752197,694.570618
	C716.050171,694.734436 715.135803,694.654419 714.099121,694.296631
	C714.831116,694.121460 715.685425,694.224060 716.752197,694.570618
z"/>
    <path fill="#A1C3C2" opacity="1.000000" stroke="none"
          d="
M692.740234,712.625671
	C692.460205,710.828247 692.297668,708.601196 692.442139,706.189941
	C692.785278,708.069214 692.821411,710.132629 692.740234,712.625671
z"/>
    <path fill="#A1C3C2" opacity="1.000000" stroke="none"
          d="
M693.431580,703.106445
	C693.755798,702.133545 694.411804,701.073242 695.409363,699.984741
	C695.088440,700.977417 694.425903,701.998291 693.431580,703.106445
z"/>
    <path fill="#A1C3C2" opacity="1.000000" stroke="none"
          d="
M692.856079,715.742798
	C692.644775,715.723389 692.520264,715.452759 692.555298,715.096680
	C692.790833,715.171326 692.866882,715.331482 692.856079,715.742798
z"/>
</svg>