<svg viewBox="0 0 24 24" fill="none" xmlns="http://www.w3.org/2000/svg">
    <path d="M10.7657 13.1199C10.1673 13.147 9.60847 13.4101 9.19575 13.8446C8.26492 12.8154 6.49049 12.8947 5.6935 14.0609C4.16201 16.4002 6.92419 19.8348 9.20596 19.8673C10.6073 19.8263 11.9692 18.6257 12.5907 17.4606C12.9187 16.8428 13.5857 15.275 12.6965 14.061C12.2331 13.4282 11.5287 13.0844 10.7657 13.1199ZM11.9286 17.1081C11.4219 18.0582 10.288 19.0853 9.206 19.1177C7.51346 19.1111 5.17857 16.3108 6.29916 14.503C6.9246 13.5889 8.3405 13.7028 8.87293 14.6534C9.00633 14.8938 9.382 14.894 9.51637 14.6547C10.0568 13.7001 11.4563 13.5893 12.0916 14.5042C12.7476 15.4001 12.1324 16.7243 11.9286 17.1081Z" fill="currentColor"/>
    <path d="M2.26098 18.0703C2.04825 20.387 4.03898 22.5576 6.37375 22.4999C6.37371 22.5 12.0176 22.5 12.0176 22.5C13.1746 22.5 14.246 22.0332 15.0344 21.1858C16.7153 19.4572 16.065 16.9329 15.6296 14.8125C15.6296 14.8125 16.9338 14.8125 16.9338 14.8125C17.8722 14.8769 18.7439 13.9047 19.4291 13.3991C19.8799 12.9756 20.8194 13.1329 21.375 13.1063C21.5821 13.1063 21.75 12.9384 21.75 12.7313C21.75 12.5242 21.5821 12.3563 21.375 12.3563H20.2601C19.3329 12.2878 18.4418 13.2679 17.764 13.7701C17.5289 13.9587 17.2341 14.0625 16.9338 14.0625H15.4423C15.3126 13.5827 15.1705 13.1072 15.0079 12.6414C14.9396 12.4457 14.7248 12.342 14.5301 12.4109C14.3346 12.4792 14.2315 12.693 14.2996 12.8886C14.6803 13.9792 14.969 15.1163 15.1576 16.2689C15.2649 16.9167 15.3386 17.5237 15.3821 18.1245C15.5645 20.0235 13.926 21.7943 12.0175 21.75C12.0176 21.75 6.37371 21.75 6.37371 21.75C5.42742 21.75 4.5509 21.3682 3.90618 20.675C2.71744 19.4644 2.97316 17.8258 3.23022 16.2683C3.69453 13.4407 4.79147 10.6742 6.39911 8.24998H9.51744C9.53978 8.24998 9.55915 8.24101 9.58041 8.23726C9.8715 8.43803 10.2231 8.55687 10.6027 8.55687H13.4835C13.4784 10.3667 15.0777 11.6635 16.8413 11.4885C17.3319 11.4809 17.336 10.7471 16.8413 10.7386H16.4152C15.2122 10.7386 14.2335 9.75987 14.2335 8.55687C14.2335 8.14323 13.8971 7.80687 13.4835 7.80687H10.6027C10.0201 7.80687 9.54601 7.33281 9.54601 6.74998C9.54601 6.54325 9.71429 6.37498 9.92101 6.37498H16.7719C17.0727 6.37498 17.3677 6.47844 17.6025 6.6663C18.2846 7.17143 19.1631 8.14588 20.0984 8.07949C20.0984 8.07951 21.375 8.07951 21.375 8.07951C21.8613 8.07475 21.8727 7.33723 21.375 7.32952H20.0984C19.7975 7.32952 19.5026 7.22606 19.2678 7.03819C18.588 6.53473 17.7026 5.55639 16.7719 5.62501C16.7719 5.62499 13.103 5.62499 13.103 5.62499C13.4882 4.92301 13.7645 4.17273 13.9193 3.38341C13.9678 3.16424 13.7865 2.93641 13.5613 2.93646C11.5177 2.84453 11.4534 1.47487 9.1937 1.50004C6.93426 1.47514 6.86963 2.84464 4.82631 2.9365C4.60197 2.93772 4.41914 3.16295 4.46832 3.38341C4.66385 4.38024 5.0489 5.31691 5.60931 6.16906C5.0103 6.50179 4.88032 7.44375 5.39779 7.91564C5.46315 7.98267 5.53749 8.03674 5.61543 8.08441C3.68571 11.0726 2.50662 14.5675 2.26098 18.0703ZM6.195 6.74998H8.79602C8.79602 7.01828 8.85861 7.27083 8.96397 7.49998H6.195C5.70642 7.491 5.69901 6.75988 6.195 6.74998ZM7.14642 2.91063C8.27163 2.03155 10.1163 2.03166 11.2412 2.9107C11.71 3.21056 12.2324 3.54472 13.0893 3.65257C12.9087 4.35012 12.6185 5.00994 12.2326 5.62499H9.92101C9.58982 5.62499 9.29468 5.7715 9.08861 5.99999H6.39495C5.89536 5.28286 5.51163 4.49313 5.29833 3.65257C6.15526 3.54473 6.67767 3.21056 7.14642 2.91063Z" fill="currentColor"/>
</svg>