<svg version="1.1" id="Layer_1" xmlns="http://www.w3.org/2000/svg" viewBox="0 228 511.999 247.999" xml:space="preserve" fill="#000000">
    <g id="SVGRepo_bgCarrier" stroke-width="0" />
    <g id="SVGRepo_tracerCarrier" stroke-linecap="round" stroke-linejoin="round" />
    <g id="SVGRepo_iconCarrier">
        <path style="fill:#01579B;" d="M457.246,476.261H123.109c-21.42,0-41.994-10.142-55.041-27.13l-57.491-74.863 c-1.939-2.525-2.982-5.623-2.963-8.806l0.328-56.891c0.046-7.879,6.447-14.24,14.323-14.24c0.013,0,0.024,0,0.037,0 c16.997,0.044,41.367,0.12,60.942,0.239c8.637,0.052,15.951,0.109,21.125,0.173c11.003,0.135,13.96,0.17,18.186,4.387l84.293,84.293 c9.738,9.738,25.582,9.738,35.32,0l0.127-0.127c9.737-9.737,9.737-25.582,0-35.32l-78.822-77.56 c-9.449-9.298-21.954-14.419-35.209-14.419H14.323C6.412,255.998,0,249.586,0,241.675c0-7.91,6.412-14.323,14.323-14.323h113.94 c20.822,0,40.462,8.042,55.301,22.647l78.902,77.64c20.988,20.988,20.988,55.005,0.083,75.912l-0.126,0.126 c-20.908,20.907-54.925,20.907-75.831,0l-80.264-80.264c-9.036-0.129-30.615-0.278-69.823-0.398l-0.218,37.7l54.499,70.967 c7.661,9.976,19.744,15.933,32.322,15.933h334.137c13.771,0,24.976-11.203,24.976-24.976v-0.179 c0-13.771-11.203-24.976-24.976-24.976H319.006c-7.91,0-14.323-6.412-14.323-14.323s6.412-14.323,14.323-14.323h138.238 c29.566,0,53.621,24.054,53.621,53.621v0.179C510.867,452.207,486.812,476.261,457.246,476.261z" />
    </g>
</svg>