<svg version="1.1" id="Layer_1" xmlns="http://www.w3.org/2000/svg" viewBox="215 35 297.999 298.999" xml:space="preserve" fill="#000000">
    <g id="SVGRepo_bgCarrier" stroke-width="0" />
    <g id="SVGRepo_tracerCarrier" stroke-linecap="round" stroke-linejoin="round" />
    <g id="SVGRepo_iconCarrier">
        <circle style="fill:#B3E5FC;" cx="363.596" cy="184.132" r="134.075" />
        <g>
            <path style="fill:#01579B;" d="M363.601,332.534c-81.827,0-148.399-66.57-148.399-148.399c0-81.827,66.57-148.397,148.399-148.397 c81.827,0,148.397,66.57,148.397,148.397C512,265.964,445.428,332.534,363.601,332.534z M363.601,64.383 c-66.032,0-119.753,53.72-119.753,119.752s53.722,119.753,119.753,119.753s119.752-53.722,119.752-119.753 S429.633,64.383,363.601,64.383z" />
            <path style="fill:#01579B;" d="M358.087,255.922c-24.062-0.802-43.713-13.234-43.713-26.067c0-6.818,6.016-16.843,13.635-16.843 c8.422,0,15.239,11.831,30.078,14.437v-32.484c-18.448-7.018-40.104-15.64-40.104-41.307c0-25.466,18.849-37.697,40.104-40.704 v-5.614c0-2.807,3.208-5.414,7.62-5.414c3.81,0,7.62,2.607,7.62,5.414v5.013c12.432,0.401,35.893,3.609,35.893,17.445 c0,5.414-3.609,16.442-12.432,16.442c-6.617,0-10.427-6.417-23.461-7.419v29.276c18.247,6.818,39.502,16.242,39.502,43.312 c0,24.864-16.041,39.903-39.502,43.713v5.815c0,2.807-3.81,5.414-7.62,5.414c-4.411,0-7.62-2.607-7.62-5.414V255.922z M360.092,163.283v-23.862c-9.023,1.805-12.833,6.417-12.833,11.229C347.259,156.465,352.473,160.075,360.092,163.283z M371.321,200.379v26.869c6.818-1.604,12.232-5.414,12.232-12.633C383.553,207.998,378.54,203.787,371.321,200.379z" />
        </g>
    </g>
</svg>