<svg viewBox="0 0 24 24" fill="none" xmlns="http://www.w3.org/2000/svg">
    <path d="M20.8895 8.37895C21.6807 7.61489 22.1737 6.54408 22.1737 5.36039C22.1737 4.19095 21.6802 3.06586 20.82 2.2732C20.6747 2.13937 20.4489 2.14889 20.315 2.29369C20.1812 2.43895 20.1907 2.66475 20.3355 2.79862C21.0495 3.45647 21.4592 4.39008 21.4592 5.36039C21.4592 7.92501 18.7749 9.58908 16.499 8.5132C16.4104 8.47139 16.3515 8.38434 16.3456 8.28661C16.3168 7.80164 16.1071 6.25908 14.6302 5.18287C14.5511 5.12526 14.5088 5.02922 14.5207 4.93209C14.7926 2.70567 17.1155 1.28306 19.2433 2.11556C19.4271 2.187 19.6343 2.09653 19.7062 1.91264C19.7782 1.72875 19.6872 1.52156 19.5033 1.45012C17.0199 0.479623 14.3076 2.05022 13.8468 4.6132C13.8368 4.66889 13.7773 4.69964 13.7249 4.6784C12.7133 4.26928 11.5825 4.27504 10.5859 4.67854C10.5336 4.69969 10.4744 4.66912 10.4644 4.61362C10.1113 2.65472 8.39395 1.16334 6.3345 1.16334C6.3345 1.16334 6.3345 1.16334 6.33403 1.16334C4.54158 1.16334 2.94628 2.30226 2.36419 3.99661C2.29988 4.18331 2.39944 4.38628 2.58614 4.45054C2.77238 4.51439 2.97581 4.41529 3.04008 4.22859C3.52261 2.82244 4.84683 1.87786 6.33445 1.87786C8.10938 1.87786 9.57848 3.21286 9.79031 4.93139C9.80222 5.02819 9.76083 5.12414 9.68213 5.1817C8.67755 5.91689 8.04562 7.06237 7.96795 8.28567C7.96177 8.38308 7.90336 8.46998 7.81514 8.51175C5.62172 9.55031 2.95889 8.04965 2.85473 5.5042C2.84663 5.307 2.68087 5.15456 2.4832 5.16173C2.286 5.16984 2.13309 5.33606 2.14073 5.53326C2.18409 6.59076 2.61848 7.58011 3.36684 8.32748C1.45856 8.64811 0 10.3115 0 12.3093V18.2178C0 18.9973 0.631922 19.6292 1.41141 19.6292H5.82136V21.428C5.82136 22.2077 6.45352 22.8398 7.23323 22.8398L16.7996 22.8393C17.5599 22.8222 18.1786 22.1891 18.1786 21.4279V19.6292H22.5881C23.3679 19.6292 24 18.9971 24 18.2174V12.3093C24 10.402 22.6701 8.79956 20.8895 8.37895ZM10.5286 5.49234C12.7083 4.33509 15.4152 5.78329 15.625 8.27179C15.6236 8.27179 15.6226 8.27179 15.6217 8.27226H15.625C15.6474 8.52933 15.6384 8.79234 15.6126 8.98631C15.6093 8.98678 15.6055 8.98678 15.6016 8.98678H15.6126C15.5219 9.90858 14.9689 10.8868 14.064 11.4814H14.0621V11.4828C13.3214 11.9692 12.4596 12.1334 11.6537 12.0163V12.0143C11.6533 12.0148 11.6533 12.0153 11.6533 12.0163C11.2402 11.9676 10.7048 11.7832 10.2466 11.4813C8.01984 10.0173 8.19539 6.7267 10.5286 5.49234ZM16.7744 22.1253H7.23323C6.84811 22.1253 6.53588 21.8131 6.53588 21.4279V15.5198C6.53588 14.7739 6.77737 14.0689 7.23417 13.4816C7.35516 13.3258 7.32708 13.1015 7.17131 12.98C7.01555 12.859 6.7912 12.8871 6.6697 13.0428C6.11475 13.7569 5.82136 14.6133 5.82136 15.5198V18.9147H1.41141C1.02652 18.9147 0.714516 18.6027 0.714516 18.2178V12.3093C0.714516 10.4738 2.20247 8.98589 4.03795 8.98589H4.218C5.28708 9.61167 6.57361 9.72192 7.71473 9.32358C7.86722 9.27037 8.03039 9.36159 8.06686 9.51886C8.21264 10.1475 8.50012 10.7225 8.89359 11.2084C9.01505 11.3584 8.93958 11.5826 8.75391 11.6353C8.43652 11.7255 8.13047 11.8542 7.84392 12.0197C7.67292 12.1188 7.61433 12.3369 7.71291 12.5079C7.81148 12.6789 8.03016 12.7375 8.20116 12.639C9.00816 12.1722 9.74489 12.1935 9.97819 12.1968C10.0234 12.1974 10.0673 12.21 10.1068 12.2321C11.3994 12.958 12.9644 12.9308 14.194 12.2379C14.2391 12.2125 14.2903 12.199 14.3419 12.2021C16.0763 12.306 17.4641 13.7502 17.4641 15.5198C17.4642 16.7126 17.4642 20.2353 17.4642 21.428C17.4641 21.8151 17.1413 22.1253 16.7744 22.1253ZM23.2855 18.2178C23.2855 18.6022 22.9725 18.9147 22.5881 18.9147H18.1786V15.5198C18.1786 13.6121 16.8492 12.0092 15.0676 11.5891C15.7542 10.9267 16.1705 10.0813 16.3037 9.20883C17.4969 9.73115 18.9108 9.6727 20.084 8.98828C21.8598 9.05259 23.2855 10.5178 23.2855 12.3093V18.2178Z" fill="currentColor"/>
</svg>