<svg xmlns="http://www.w3.org/2000/svg" viewBox="0 -100 741 727" fill="none">
    <path d="M105.2742 78.0184C105.7508 75.0295 105.8028 71.9627 105.4281 68.9523C104.2139 58.5075 97.8522 51.9064 91.2511 46.2453C83.3332 39.4771 75.1588 32.9386 65.9925 28.9905C53.5598 23.601 37.9463 23.2876 27.5829 34.6307C17.2195 45.9737 19.5795 69.6416 28.1985 81.4234C36.3559 92.5993 46.4799 95.6701 58.0746 98.135C73.7394 101.352 100.9647 102.898 105.2742 78.0184Z" fill="url(#paint0_linear_86_660)" fill-opacity="0.3"/>
    <path opacity="0.5" d="M265.096 20.8221C277.067 8.5599 285.104 -13.6666 283.463 -32.6762C280.042 -72.1366 249.893 -83.2708 222.291 -92.4622C192.312 -102.4683 159.649 -105.393 130.628 -91.7937C101.607 -78.1946 77.3745 -45.3771 75.9038 -7.4624C75.4751 -1.7315 76.1971 4.0406 78.0073 9.3537C79.8196 13.6261 82.3347 17.3953 85.3951 20.4252C102.685 38.933 126.678 44.741 149.611 46.662C172.817 48.588 196.128 47.221 219.076 42.589C235.579 39.288 252.424 34.045 265.096 20.8221Z" fill="url(#paint0_linear_86_660)" fill-opacity="0.3"/>
    <path d="M332.399  -15.5302C332.734  -14.3459 332.765  -13.0647 332.487  -11.8587C332.208  -10.6526 331.635  -9.57927 330.843  -8.78279C329.814  -7.85582 328.582  -7.32654 327.305  -7.26324C326.028  -7.19994 324.764  -7.60552 323.678  -8.4277C320.753 -10.642 319.488 -13.5875 321.095 -16.7836C321.533 -17.5691 322.12 -18.214 322.805 -18.6636C325.798 -20.669 331.014 -19.8752 332.399 -15.5302Z" fill="url(#paint0_linear_86_660)" fill-opacity="0.3"/>
    <path d="M454.766 -102.983C453.113 -104.374 451.147 -105.104 449.14 -105.072C446.089 -105.282 443.034 -104.801 440.127 -103.652C438.557 -103.004 437.035 -102.193 435.578 -101.229C429.854 -97.558 425.28 -91.684 422.564 -84.517C416.544 -67.9097 424.189 -58.3423 438.246 -63.1887C443.097 -64.8767 447.482 -68.1398 450.935 -72.6308C453.233 -75.5698 455.013 -79.0528 456.166 -82.8648C457.319 -86.6768 457.82 -90.7368 457.639 -94.7946C457.627 -96.3237 457.366 -97.8347 456.873 -99.2402C456.38 -100.646 455.664 -101.918 454.766 -102.983Z" fill="url(#paint0_linear_86_660)" fill-opacity="0.5"/>
    <path d="M411.537 278.526C418.873 283.142 445.585 304.93 486.098 293.566C535.179 279.779 539.249 218.239 540.31 200.608C544.209 135.85 521.498 89.684 494.41 59.1225C416.889 -28.4049 313.033 3.20105 273.255 20.7692C231.836 39.0476 198.01 77.568 157.36 98.6456C131.564 112.007 103.611 117.994 75.6325 116.151C62.9604 115.295 49.9805 112.851 37.736 116.924C12.084 125.468 -3.22168 162.547 0.574829 195.532C4.37134 228.516 23.559 256.258 46.3722 273.366C78.3516 297.327 114.777 317.067 151.118 323.25C190.553 329.977 234.538 325.005 271.973 308.022C284.953 302.11 297.06 293.566 309.818 286.944C336.308 273.157 376.513 261.271 404.525 274.599C406.919 275.752 409.259 277.063 411.537 278.526Z" fill="url(#paint0_linear_86_660)" fill-opacity="0.3"/>
    <path opacity="0.5" d="M241.839 373.006C245.652 356.294 258.444 344.993 271.561 338.434C312.604 317.857 414.675 304.335 395.675 361.136C379.206 404.816 343.335 431.601 304.036 434.526C288.423 435.695 271.988 433.105 259.043 422.389C246.097 411.672 237.632 391.409 241.839 373.006Z" fill="url(#paint0_linear_86_660)" fill-opacity="0.3"/>
    <path d="M623.7012 146.404C606.5999 157.643 584.7102 158.207 567.643 146.718C550.5759 135.228 539.186 111.6439 540.280914 97.8924C540.494972 89.9278 542.38561 82.165 545.77045 75.3526C551.4139 64.5944 561.4182 57.9516 571.7302 55.967044C582.0424 54.9826 592.6623 57.2595 602.5126 61.4165C616.5015 67.2865 629.8748 77.4389 637.5532 92.7509C645.232 108.063 646.258 129.3495 637.348 143.763C633.6568 149.458 629.0016 154.111 623.7012 146.404Z" fill="url(#paint0_linear_86_660)" fill-opacity="0.3"/>
    <path d="M559.61685 232.70469C562.0684 231.51097 564.6608 230.805679 567.2953 230.615734C571.3925 230.127367 575.5076 231.29415 579.0097 233.93717C587.6972 241.6245 582.43 258.0856 570.1684 259.6105C562.2505 260.5923 551.1859 255.4326 550.450542 246.3874C549.937504 240.0161 554.34965 235.19056 559.61685 232.70469Z" fill="url(#paint0_linear_86_660)" fill-opacity="0.3"/>

    <defs>
        <linearGradient id="paint0_linear_86_660" x1="498.354" y1="178.87" x2="52.7589" y2="174.019" gradientUnits="userSpaceOnUse">
            <stop stop-color="#FF9800"/>
            <stop offset="0.335" stop-color="#FFA726"/>
            <stop offset="1" stop-color="#996417" stop-opacity="0.6"/>
        </linearGradient>
    </defs>
</svg>