<svg xmlns="http://www.w3.org/2000/svg" viewBox="0 0 131 36" fill="none">
    <path d="M0.175995 31.8638L9.57298 1.11006H18.2438L27.6408 31.8638H21.6609L13.2891 4.74072H14.3996L6.1559 31.8638H0.175995ZM5.81419 25.4568V20.0322H22.0454V25.4568H5.81419Z" fill="current"/>
    <path d="M28.9059 31.8638L39.2426 16.3161L32.358 5.33471L36.3381 1.11006L42.8732 11.3613L49.323 1.11006H56.4989L46.4612 16.3161L56.7551 31.8638L53.0474 35.8682L42.8732 21.2709L36.0818 31.8638H28.9059Z" fill="current"/>
    <path d="M60.594 31.8638V1.11006H66.4031V31.8638H60.594Z" fill="current"/>
    <path d="M86.0043 32.5045C82.9289 32.5045 80.2735 31.8354 78.0382 30.497C75.8171 29.1587 74.1014 27.2864 72.8912 24.8802C71.6952 22.474 71.0972 19.6762 71.0972 16.487C71.0972 13.2977 71.6952 10.4999 72.8912 8.09374C74.1014 5.68754 75.8171 3.81526 78.0382 2.4769C80.2735 1.13854 82.9289 0.46936 86.0043 0.46936C89.0797 0.46936 91.7279 1.13854 93.949 2.4769C96.1843 3.81526 97.9 5.68754 99.096 8.09374C100.306 10.4999 100.911 13.2977 100.911 16.487C100.911 19.6762 100.306 22.474 99.096 24.8802C97.9 27.2864 96.1843 29.1587 93.949 30.497C91.7279 31.8354 89.0797 32.5045 86.0043 32.5045ZM86.0043 27.0372C87.9549 27.0657 89.578 26.6457 90.8736 25.7772C92.1693 24.9086 93.1375 23.6771 93.7782 22.0824C94.4331 20.4878 94.7606 18.6226 94.7606 16.487C94.7606 14.3513 94.4331 12.5004 93.7782 10.9342C93.1375 9.36802 92.1693 8.15069 90.8736 7.28218C89.578 6.41367 87.9549 5.96517 86.0043 5.9367C84.0537 5.90822 82.4306 6.32824 81.1349 7.19675C79.8393 8.06526 78.864 9.29683 78.209 10.8915C77.5683 12.4861 77.248 14.3513 77.248 16.487C77.248 18.6226 77.5683 20.4736 78.209 22.0397C78.864 23.6059 79.8393 24.8232 81.1349 25.6917C82.4306 26.5602 84.0537 27.0087 86.0043 27.0372Z" fill="current"/>
    <path d="M105.175 31.8638V1.11006H111.069L124.438 21.6126V1.11006H130.333V31.8638H124.438L111.069 11.3613V31.8638H105.175Z" fill="current"/>
</svg>