<svg xmlns="http://www.w3.org/2000/svg" viewBox="0 0 55 55" fill="none">
    <path d="M17.5633 26.5183L21.0564 23.4486C23.9506 26.1191 23.1734 30.5406 19.4988 32.3371C21.6431 32.5608 23.3548 31.7322 25.115 30.9187C27.5344 29.7936 29.9811 28.6202 32.5306 27.855C35.4642 26.978 37.303 27.97 38.8 30.6253C40.2305 33.1627 40.5904 35.942 40.7053 38.7909C40.7597 40.1549 40.7507 41.5128 40.8928 42.8858C41.3223 46.9989 42.8919 50.4466 46.769 52.5213C43.1036 52.1638 39.5682 50.9744 36.432 49.0433C33.2353 47.0775 30.7735 44.3163 28.3601 41.4826C29.5214 45.8678 31.8531 53.3046 35.4823 54.9679L33.3653 53.607C32.0044 52.6997 30.7009 52.11 29.6484 50.8821C27.6191 48.508 25.7168 46.019 23.875 43.4877C21.6763 40.4634 19.3386 37.6084 15.8273 36.0358C15.3701 35.8114 14.8565 35.7273 14.3515 35.7938C11.5994 36.3987 8.93494 36.1658 6.57598 34.6265C4.55272 33.2997 2.63168 31.8226 0.829826 30.2079C-0.534137 28.9982 -0.16514 28.0909 1.55866 27.4649C2.19437 27.2055 2.75416 26.7893 3.18573 26.2552C5.97868 22.948 9.20683 20.0343 12.7819 17.5935C15.6882 15.5733 18.9212 14.3485 22.3538 13.6045C23.0615 13.4502 23.4758 13.2718 23.4879 12.3524C23.5575 7.31393 26.1191 3.88436 31.0305 2.2089C35.5519 0.675576 40.2033 0.639288 44.9424 1.13527C44.8909 1.27439 44.8788 1.37117 44.8456 1.37722C41.2164 2.13632 38.8121 4.22006 37.6901 7.83108C37.0852 9.80293 35.573 11.0399 33.6375 11.7203C32.5687 12.0661 31.5341 12.5094 30.5466 13.045H54.3691V19.4989C53.9699 19.5261 53.5888 19.5745 53.2078 19.5745C51 19.5745 48.7953 19.5412 46.5906 19.5745C43.2893 19.6627 39.9882 19.3807 36.7495 18.7337C31.8017 17.6994 26.9054 18.0835 22.4294 20.7993C20.3063 22.0695 18.6823 23.9265 17.5633 26.5183ZM8.35125 25.8892C7.29274 25.8681 6.53667 26.5364 6.5155 27.5284C6.50431 28.0162 6.68244 28.4894 7.01209 28.849C7.34174 29.2086 7.7978 29.4268 8.28472 29.4579C9.31601 29.5033 10.0812 28.72 10.0781 27.6252C10.0751 26.5304 9.42186 25.9104 8.35125 25.8892Z" fill="url(#paint0_linear_6_4438)"/>
    <path d="M38.9603 26.8419C41.6065 27.4165 44.4464 28.8956 46.1158 31.2967C47.2723 32.9501 48.1781 34.7653 48.8044 36.683C49.7117 39.5773 50.7551 40.6025 53.1745 42.7195C53.2616 42.7957 53.6282 43.1732 54.2481 43.5059C54.2723 43.524 54.3842 43.6268 54.8379 43.778C52.0283 43.7266 48.9526 42.7437 47.0382 40.8324C45.5805 39.3777 44.4403 37.5298 43.4483 35.691C41.9846 32.1345 40.4724 28.9589 38.9603 26.8419Z" fill="url(#paint1_linear_6_4438)"/>
    <defs>
        <linearGradient id="paint0_linear_6_4438" x1="52.1436" y1="13.9846" x2="17.7055" y2="33.4412" gradientUnits="userSpaceOnUse">
            <stop stop-color="#F8A133"/>
            <stop offset="1" stop-color="#0669D8"/>
        </linearGradient>
        <linearGradient id="paint1_linear_6_4438" x1="54.188" y1="30.952" x2="43.8062" y2="36.4253" gradientUnits="userSpaceOnUse">
            <stop stop-color="#F8A133"/>
            <stop offset="1" stop-color="#0669D8"/>
        </linearGradient>
    </defs>
</svg>