<svg xmlns="http://www.w3.org/2000/svg" viewBox="0 0 163 160" fill="none">
    <g>
        <path d="M52.693 75.8862L63.0205 66.8104C71.5777 74.7059 69.2797 87.7785 58.4156 93.0899C64.7552 93.7515 69.8162 91.3015 75.0202 88.8962C82.1735 85.5699 89.4073 82.1006 96.9451 79.8384C105.618 77.2453 111.055 80.1782 115.481 88.0289C119.71 95.5309 120.774 103.748 121.114 112.171C121.275 116.204 121.248 120.219 121.669 124.278C122.938 136.439 127.579 146.632 139.042 152.766C128.205 151.709 117.752 148.193 108.48 142.483C99.0285 136.671 91.75 128.508 84.6146 120.129C88.0481 133.095 94.9421 155.082 105.672 160L99.4129 155.976C95.3892 153.294 91.5354 151.55 88.4237 147.92C82.4239 140.901 76.7996 133.542 71.3541 126.058C64.8536 117.116 57.9417 108.675 47.5605 104.025C46.2085 103.362 44.6902 103.113 43.197 103.31C35.0601 105.098 27.1825 104.41 20.2081 99.8587C14.2261 95.936 8.5464 91.5689 3.21908 86.7949C-0.813596 83.2183 0.277376 80.5358 5.37392 78.6849C7.25345 77.9179 8.90854 76.6874 10.1845 75.1082C18.4421 65.3303 27.9864 56.7158 38.5563 49.4994C47.1492 43.5264 56.7078 39.9051 66.8565 37.7055C68.9488 37.2494 70.1738 36.7219 70.2096 34.0036C70.4153 19.1069 77.9888 8.96708 92.51 4.01344C105.878 -0.519957 119.63 -0.627245 133.641 0.839178C133.489 1.25049 133.454 1.53662 133.355 1.5545C122.625 3.79885 115.517 9.9596 112.199 20.6359C110.411 26.4658 105.94 30.123 100.218 32.1348C97.0577 33.1569 93.9988 34.4679 91.0793 36.0513H161.513V55.1327C160.332 55.2131 159.206 55.3562 158.079 55.3562C151.552 55.3562 145.033 55.2579 138.515 55.3562C128.754 55.617 118.994 54.7832 109.419 52.8704C94.7901 49.8124 80.3136 50.948 67.08 58.9776C60.803 62.733 56.0014 68.2232 52.693 75.8862ZM25.4568 74.0263C22.3272 73.9637 20.0918 75.9398 20.0292 78.8727C19.9962 80.3149 20.5228 81.714 21.4974 82.7772C22.4721 83.8405 23.8205 84.4855 25.2601 84.5774C28.3092 84.7116 30.5714 82.3957 30.5625 79.1588C30.5535 75.9219 28.6221 74.0889 25.4568 74.0263Z"/>
        <path d="M115.955 76.8431C123.779 78.542 132.175 82.9149 137.111 90.0141C140.53 94.9025 143.208 100.269 145.06 105.939C147.742 114.496 150.827 117.527 157.981 123.787C158.238 124.012 159.322 125.128 161.155 126.111C161.226 126.165 161.557 126.469 162.898 126.916C154.592 126.764 145.498 123.858 139.838 118.207C135.528 113.906 132.157 108.443 129.224 103.006C124.897 92.4909 120.426 83.1022 115.955 76.8431Z"/>
    </g>
</svg>