<svg xmlns="http://www.w3.org/2000/svg" viewBox="0 0 25 24" fill="none">
    <path fill-rule="evenodd" clip-rule="evenodd" d="M12.6666 22C18.2106 22 22.6666 17.544 22.6666 12C22.6666 6.456 18.2106 2 12.6666 2C7.12263 2 2.66663 6.456 2.66663 12C2.66663 17.544 7.12263 22 12.6666 22ZM15.4166 13.58C15.4166 12.124 14.5416 11.624 12.7916 11.418C11.5416 11.25 11.2916 10.918 11.2916 10.331C11.2916 9.749 11.7116 9.375 12.5416 9.375C13.2916 9.375 13.7116 9.625 13.9166 10.249C13.9393 10.309 13.9794 10.3608 14.0318 10.3977C14.0842 10.4346 14.1465 10.4549 14.2106 10.456H14.8736C14.912 10.4572 14.9502 10.4506 14.986 10.4367C15.0218 10.4227 15.0543 10.4016 15.0817 10.3747C15.1091 10.3478 15.1308 10.3156 15.1454 10.28C15.16 10.2445 15.1672 10.2064 15.1666 10.168V10.124C14.9986 9.206 14.2486 8.331 13.2916 8.249V7.331C13.2916 7.162 13.1666 7.037 12.9616 6.999H12.4116C12.2416 6.999 12.0856 7.124 12.0416 7.331V8.249C10.7916 8.419 9.96163 9.375 9.96163 10.419C9.96163 11.793 10.7916 12.331 12.5416 12.543C13.7116 12.749 14.0856 13 14.0856 13.668C14.0856 14.331 13.4986 14.793 12.7106 14.793C11.6236 14.793 11.2486 14.331 11.1236 13.706C11.0856 13.543 10.9606 13.456 10.8356 13.456H10.1236C10.0852 13.4554 10.0471 13.4627 10.0116 13.4773C9.97606 13.4919 9.94386 13.5135 9.91694 13.5409C9.89002 13.5683 9.86894 13.6008 9.85496 13.6366C9.84098 13.6724 9.8344 13.7106 9.83563 13.749V13.793C9.99863 14.831 10.6666 15.543 12.0426 15.75V16.674C12.0426 16.844 12.1676 16.956 12.3726 16.999H12.9726C13.1356 16.999 13.2486 16.887 13.2926 16.674V15.749C14.5426 15.543 15.4166 14.706 15.4166 13.581M8.45863 16.695C9.0627 17.2492 9.77069 17.6782 10.5416 17.957C10.6666 18.044 10.7916 18.207 10.7916 18.332V18.919C10.7916 19 10.7916 19.044 10.7486 19.082C10.7106 19.25 10.5416 19.332 10.3736 19.25C8.85721 18.7672 7.53369 17.8145 6.59448 16.5298C5.65526 15.2451 5.14905 13.6949 5.14905 12.1035C5.14905 10.5121 5.65526 8.96191 6.59448 7.6772C7.53369 6.39248 8.85721 5.43982 10.3736 4.957C10.4166 4.919 10.4986 4.919 10.5416 4.919C10.7116 4.957 10.7916 5.082 10.7916 5.25V5.832C10.7916 6.044 10.7116 6.169 10.5416 6.25C9.68963 6.55793 8.9159 7.0497 8.27539 7.69038C7.63489 8.33106 7.14333 9.10492 6.83563 9.957C6.40579 11.1142 6.33062 12.3733 6.6197 13.5735C6.90879 14.7736 7.54901 15.8604 8.45863 16.695ZM14.5856 5.125C14.6236 4.957 14.7916 4.875 14.9606 4.957C16.1062 5.3291 17.1463 5.96956 17.9943 6.82502C18.8423 7.68047 19.4736 8.72617 19.8356 9.875C21.0856 13.832 18.9166 18.044 14.9606 19.294C14.9166 19.332 14.8356 19.332 14.7916 19.332C14.6236 19.294 14.5416 19.169 14.5416 19V18.42C14.5416 18.207 14.6236 18.082 14.7916 18C16.4986 17.375 17.8736 16.044 18.4986 14.294C18.7844 13.5256 18.9152 12.7082 18.8833 11.889C18.8514 11.0698 18.6575 10.2651 18.3128 9.52122C17.9682 8.77738 17.4795 8.10921 16.8751 7.55529C16.2708 7.00137 15.5626 6.57269 14.7916 6.294C14.6666 6.207 14.5416 6.044 14.5416 5.875V5.295C14.5416 5.207 14.5416 5.169 14.5856 5.125Z" fill="#2775CA"/>
</svg>